<svg width="32" height="32" viewBox="0 0 32 32" fill="none" xmlns="http://www.w3.org/2000/svg">
<path d="M13.3334 4.26673C11.2477 4.75025 9.32934 5.78299 7.77729 7.25784C6.22523 8.73269 5.09604 10.5959 4.50682 12.6543C3.9176 14.7127 3.88982 16.8912 4.42637 18.9639C4.96291 21.0366 6.04423 22.9281 7.55818 24.442C9.07212 25.9559 10.9635 27.0373 13.0363 27.5738C15.109 28.1103 17.2875 28.0826 19.3459 27.4934C21.4042 26.9041 23.2675 25.7749 24.7423 24.2229C26.2172 22.6708 27.2499 20.7525 27.7334 18.6667C27.7334 18.3131 27.593 17.974 27.3429 17.7239C27.0929 17.4739 26.7537 17.3334 26.4001 17.3334H17.3334C16.6262 17.3334 15.9479 17.0524 15.4478 16.5523C14.9477 16.0522 14.6668 15.374 14.6668 14.6667V5.33339C14.6502 5.17543 14.6025 5.02232 14.5263 4.88295C14.4501 4.74358 14.347 4.62072 14.223 4.5215C14.0989 4.42228 13.9564 4.34867 13.8037 4.30493C13.6511 4.2612 13.4912 4.24821 13.3334 4.26673Z" stroke="#635BFF" stroke-width="2.66667" stroke-linecap="round" stroke-linejoin="round"/>
<path d="M20.0001 4.66675C21.6931 5.26286 23.2308 6.23115 24.4999 7.50029C25.7691 8.76944 26.7373 10.3071 27.3335 12.0001H21.3335C20.9798 12.0001 20.6407 11.8596 20.3906 11.6096C20.1406 11.3595 20.0001 11.0204 20.0001 10.6667V4.66675Z" stroke="#635BFF" stroke-width="2.66667" stroke-linecap="round" stroke-linejoin="round"/>
</svg>
