<svg width="32" height="32" viewBox="0 0 32 32" fill="none" xmlns="http://www.w3.org/2000/svg">
<path d="M16.6667 15.3333L11.3333 20.6667L13.3333 22.6667M16 20L14 18M16 13.3333C16 14.0406 16.281 14.7189 16.781 15.219C17.2811 15.719 17.9594 16 18.6667 16C19.3739 16 20.0522 15.719 20.5523 15.219C21.0524 14.7189 21.3333 14.0406 21.3333 13.3333C21.3333 12.6261 21.0524 11.9478 20.5523 11.4477C20.0522 10.9476 19.3739 10.6667 18.6667 10.6667C17.9594 10.6667 17.2811 10.9476 16.781 11.4477C16.281 11.9478 16 12.6261 16 13.3333ZM28 16C28 17.5759 27.6896 19.1363 27.0866 20.5922C26.4835 22.0481 25.5996 23.371 24.4853 24.4853C23.371 25.5996 22.0481 26.4835 20.5922 27.0866C19.1363 27.6896 17.5759 28 16 28C14.4241 28 12.8637 27.6896 11.4078 27.0866C9.95189 26.4835 8.62902 25.5996 7.51472 24.4853C6.40042 23.371 5.5165 22.0481 4.91345 20.5922C4.31039 19.1363 4 17.5759 4 16C4 12.8174 5.26428 9.76516 7.51472 7.51472C9.76516 5.26428 12.8174 4 16 4C19.1826 4 22.2348 5.26428 24.4853 7.51472C26.7357 9.76516 28 12.8174 28 16Z" stroke="#635BFF" stroke-width="2.66667" stroke-linecap="round" stroke-linejoin="round"/>
</svg>
