<svg width="32" height="32" viewBox="0 0 32 32" fill="none" xmlns="http://www.w3.org/2000/svg">
<path d="M10.6663 14.6667C9.16434 14.6667 7.70638 15.174 6.52873 16.1063C5.35108 17.0386 4.52276 18.3412 4.178 19.8031C3.83324 21.265 3.99225 22.8005 4.62926 24.1607C5.26626 25.5209 6.34394 26.6262 7.68764 27.2974C9.03133 27.9685 10.5623 28.1663 12.0324 27.8586C13.5026 27.5509 14.8257 26.7558 15.7875 25.602C16.7492 24.4483 17.2932 23.0036 17.3312 21.5021C17.3692 20.0006 16.8991 18.5303 15.997 17.3293M16.0024 25.3373C16.6847 26.2457 17.5879 26.9647 18.6263 27.4259C19.6646 27.8872 20.8035 28.0754 21.935 27.9727C23.0666 27.8701 24.153 27.4799 25.0914 26.8394C26.0298 26.1988 26.7888 25.3291 27.2966 24.3127C27.8043 23.2963 28.0439 22.167 27.9925 21.032C27.9412 19.897 27.6006 18.794 27.0032 17.8276C26.4057 16.8612 25.5712 16.0636 24.5788 15.5104C23.5865 14.9571 22.4692 14.6667 21.333 14.6667M9.33301 10.6667C9.33301 12.4348 10.0354 14.1305 11.2856 15.3807C12.5359 16.631 14.2316 17.3333 15.9997 17.3333C17.7678 17.3333 19.4635 16.631 20.7137 15.3807C21.964 14.1305 22.6663 12.4348 22.6663 10.6667C22.6663 8.89856 21.964 7.20286 20.7137 5.95262C19.4635 4.70238 17.7678 4 15.9997 4C14.2316 4 12.5359 4.70238 11.2856 5.95262C10.0354 7.20286 9.33301 8.89856 9.33301 10.6667Z" stroke="white" stroke-width="2.66667" stroke-linecap="round" stroke-linejoin="round"/>
</svg>
