<svg width="33" height="32" viewBox="0 0 33 32" fill="none" xmlns="http://www.w3.org/2000/svg">
<path d="M16.668 10.6667V28M16.668 10.6667C16.1857 8.67925 15.3552 6.98006 14.285 5.79085C13.2147 4.60165 11.9542 3.97756 10.668 3.99997C9.78391 3.99997 8.93607 4.35116 8.31095 4.97628C7.68582 5.6014 7.33464 6.44925 7.33464 7.33331C7.33464 8.21736 7.68582 9.06521 8.31095 9.69033C8.93607 10.3155 9.78391 10.6666 10.668 10.6666M16.668 10.6667C17.1503 8.67925 17.9807 6.98006 19.051 5.79085C20.1213 4.60165 21.3817 3.97756 22.668 3.99997C23.552 3.99997 24.3999 4.35116 25.025 4.97628C25.6501 5.6014 26.0013 6.44925 26.0013 7.33331C26.0013 8.21736 25.6501 9.06521 25.025 9.69033C24.3999 10.3155 23.552 10.6666 22.668 10.6666M26.0013 16V25.3334C26.0013 26.0406 25.7204 26.7189 25.2203 27.219C24.7202 27.7191 24.0419 28 23.3346 28H10.0013C9.29406 28 8.61578 27.7191 8.11568 27.219C7.61559 26.7189 7.33464 26.0406 7.33464 25.3334V16M4.66797 12C4.66797 11.6464 4.80844 11.3073 5.05849 11.0572C5.30854 10.8072 5.64768 10.6667 6.0013 10.6667H27.3346C27.6883 10.6667 28.0274 10.8072 28.2774 11.0572C28.5275 11.3073 28.668 11.6464 28.668 12V14.6667C28.668 15.0203 28.5275 15.3595 28.2774 15.6095C28.0274 15.8596 27.6883 16 27.3346 16H6.0013C5.64768 16 5.30854 15.8596 5.05849 15.6095C4.80844 15.3595 4.66797 15.0203 4.66797 14.6667V12Z" stroke="white" stroke-width="2.66667" stroke-linecap="round" stroke-linejoin="round"/>
</svg>
