<svg width="32" height="32" viewBox="0 0 32 32" fill="none" xmlns="http://www.w3.org/2000/svg">
<path d="M11.9998 23.9999C11.9998 24.7072 11.7189 25.3854 11.2188 25.8855C10.7187 26.3856 10.0404 26.6666 9.33317 26.6666C8.62593 26.6666 7.94765 26.3856 7.44755 25.8855C6.94746 25.3854 6.6665 24.7072 6.6665 23.9999C6.6665 23.2927 6.94746 22.6144 7.44755 22.1143C7.94765 21.6142 8.62593 21.3333 9.33317 21.3333M11.9998 23.9999C11.9998 23.2927 11.7189 22.6144 11.2188 22.1143C10.7187 21.6142 10.0404 21.3333 9.33317 21.3333M11.9998 23.9999H19.9998C20.7071 23.9999 21.3854 23.719 21.8855 23.2189C22.3856 22.7188 22.6665 22.0405 22.6665 21.3333V14.6666M9.33317 21.3333V10.6666M9.33317 10.6666C8.62593 10.6666 7.94765 10.3856 7.44755 9.88554C6.94746 9.38544 6.6665 8.70716 6.6665 7.99992C6.6665 7.29267 6.94746 6.6144 7.44755 6.1143C7.94765 5.6142 8.62593 5.33325 9.33317 5.33325C10.0404 5.33325 10.7187 5.6142 11.2188 6.1143C11.7189 6.6144 11.9998 7.29267 11.9998 7.99992C11.9998 8.70716 11.7189 9.38544 11.2188 9.88554C10.7187 10.3856 10.0404 10.6666 9.33317 10.6666ZM22.6665 14.6666L18.6665 18.6666M22.6665 14.6666L26.6665 18.6666M19.9998 7.99992C19.9998 8.70716 20.2808 9.38544 20.7809 9.88554C21.281 10.3856 21.9593 10.6666 22.6665 10.6666C23.3737 10.6666 24.052 10.3856 24.5521 9.88554C25.0522 9.38544 25.3332 8.70716 25.3332 7.99992C25.3332 7.29267 25.0522 6.6144 24.5521 6.1143C24.052 5.6142 23.3737 5.33325 22.6665 5.33325C21.9593 5.33325 21.281 5.6142 20.7809 6.1143C20.2808 6.6144 19.9998 7.29267 19.9998 7.99992Z" stroke="#635BFF" stroke-width="2.66667" stroke-linecap="round" stroke-linejoin="round"/>
</svg>
