<svg width="648" height="80" viewBox="0 0 648 80" fill="none" xmlns="http://www.w3.org/2000/svg">
<rect x="574.4" y="8.4" width="63.2" height="63.2" rx="31.6" fill="white"/>
<rect x="574.4" y="8.4" width="63.2" height="63.2" rx="31.6" stroke="#E2E4E9" stroke-width="0.8"/>
<path d="M592.473 47.5152L592.473 32.4849L599.988 36.66V43.3818L606 46.7636L612.012 43.3818V36.66L619.527 32.4849V47.5152L606 55.0303L592.473 47.5152Z" fill="#192657"/>
<path fill-rule="evenodd" clip-rule="evenodd" d="M596.23 34.572L592.473 32.4844L606 24.9692L619.527 32.4844L615.77 34.572V45.6359L606 51.2723L596.23 45.6359L596.23 34.572ZM615.363 34.7981L612.012 36.6595V36.6177L606 33.2359L599.988 36.6177V36.6595L596.637 34.7981V45.4047L606 50.8062L615.363 45.4047V34.7981Z" fill="url(#paint0_linear_28_1141)"/>
<rect x="530.4" y="8.4" width="63.2" height="63.2" rx="31.6" fill="white"/>
<rect x="530.4" y="8.4" width="63.2" height="63.2" rx="31.6" stroke="#E2E4E9" stroke-width="0.8"/>
<g clip-path="url(#clip0_28_1141)">
<path d="M552.755 33.2319C551.381 33.2319 550.062 33.778 549.09 34.75L545.918 37.9223C544.946 38.8943 544.4 40.2126 544.4 41.5873C544.4 44.4499 546.72 46.7704 549.583 46.7704C550.958 46.7704 552.276 46.2243 553.248 45.2523L555.442 43.058C555.442 43.0581 555.442 43.058 555.442 43.058L561.836 36.6647C562.3 36.2004 562.929 35.9396 563.586 35.9396C564.685 35.9396 565.617 36.656 565.94 37.6473L567.958 35.6296C567.037 34.1879 565.423 33.2319 563.586 33.2319C562.211 33.2319 560.893 33.778 559.921 34.75L551.333 43.3377C550.869 43.8019 550.24 44.0627 549.583 44.0627C548.216 44.0627 547.108 42.9544 547.108 41.5873C547.108 40.9308 547.368 40.3011 547.833 39.8369L551.005 36.6647C551.469 36.2004 552.099 35.9396 552.755 35.9396C553.854 35.9396 554.786 36.656 555.109 37.6474L557.127 35.6296C556.207 34.1879 554.593 33.2319 552.755 33.2319Z" fill="#0080FF"/>
<path d="M562.164 43.3377C561.7 43.8019 561.071 44.0627 560.414 44.0627C559.315 44.0627 558.383 43.3465 558.06 42.3554L556.042 44.373C556.963 45.8145 558.577 46.7704 560.414 46.7704C561.789 46.7704 563.107 46.2243 564.079 45.2523L572.667 36.6647C573.131 36.2004 573.761 35.9396 574.417 35.9396C575.784 35.9396 576.893 37.0479 576.893 38.415C576.893 39.0716 576.632 39.7012 576.167 40.1654L572.995 43.3377C572.531 43.8019 571.901 44.0627 571.245 44.0627C570.146 44.0627 569.214 43.3464 568.891 42.3551L566.873 44.3729C567.794 45.8145 569.408 46.7704 571.245 46.7704C572.62 46.7704 573.938 46.2243 574.91 45.2523L578.082 42.08C579.054 41.108 579.6 39.7897 579.6 38.415C579.6 35.5525 577.28 33.2319 574.417 33.2319C573.042 33.2319 571.724 33.778 570.752 34.75L562.164 43.3377Z" fill="#0080FF"/>
</g>
<rect x="486.4" y="8.4" width="63.2" height="63.2" rx="31.6" fill="white"/>
<rect x="486.4" y="8.4" width="63.2" height="63.2" rx="31.6" stroke="#E2E4E9" stroke-width="0.8"/>
<g clip-path="url(#clip1_28_1141)">
<path d="M516.454 29.375L530.339 43.2039V50.6278H523.86V45.8727L513.775 35.8285H511.68V50.6278H505.2V29.375H516.454ZM523.86 36.7504V29.375H530.339V36.7504H523.86Z" fill="#212326"/>
</g>
<rect x="442.4" y="8.4" width="63.2" height="63.2" rx="31.6" fill="white"/>
<rect x="442.4" y="8.4" width="63.2" height="63.2" rx="31.6" stroke="#E2E4E9" stroke-width="0.8"/>
<path d="M461.046 45.7654C461.354 45.7654 461.603 43.184 461.603 39.9996C461.603 36.8153 461.354 34.2339 461.046 34.2339C460.739 34.2339 460.49 36.8153 460.49 39.9996C460.49 43.184 460.739 45.7654 461.046 45.7654Z" fill="#267BA2"/>
<path d="M462.525 46.4061C462.867 46.4061 463.144 43.5378 463.144 39.9997C463.144 36.4615 462.867 33.5933 462.525 33.5933C462.183 33.5933 461.905 36.4615 461.905 39.9997C461.905 43.5378 462.183 46.4061 462.525 46.4061Z" fill="#267BA2"/>
<path d="M464.172 47.1235C464.549 47.1235 464.855 43.9337 464.855 39.999C464.855 36.0643 464.549 32.8745 464.172 32.8745C463.795 32.8745 463.489 36.0643 463.489 39.999C463.489 43.9337 463.795 47.1235 464.172 47.1235Z" fill="#267BA2"/>
<path d="M465.995 47.9128C466.415 47.9128 466.756 44.3701 466.756 39.9999C466.756 35.6297 466.415 32.0869 465.995 32.0869C465.575 32.0869 465.235 35.6297 465.235 39.9999C465.235 44.3701 465.575 47.9128 465.995 47.9128Z" fill="#267BA2"/>
<path d="M468.023 48.7915C468.49 48.7915 468.868 44.8547 468.868 39.9985C468.868 35.1423 468.49 31.2056 468.023 31.2056C467.556 31.2056 467.178 35.1423 467.178 39.9985C467.178 44.8547 467.556 48.7915 468.023 48.7915Z" fill="#267BA2"/>
<path d="M470.283 49.7706C470.8 49.7706 471.219 45.3957 471.219 39.9991C471.219 34.6024 470.8 30.2275 470.283 30.2275C469.765 30.2275 469.346 34.6024 469.346 39.9991C469.346 45.3957 469.765 49.7706 470.283 49.7706Z" fill="#267BA2"/>
<path d="M472.789 50.8544C473.364 50.8544 473.831 45.9942 473.831 39.9987C473.831 34.0033 473.364 29.1431 472.789 29.1431C472.214 29.1431 471.747 34.0033 471.747 39.9987C471.747 45.9942 472.214 50.8544 472.789 50.8544Z" fill="#267BA2"/>
<path d="M475.57 52.059C476.211 52.059 476.731 46.6597 476.731 39.9995C476.731 33.3392 476.211 27.9399 475.57 27.9399C474.928 27.9399 474.408 33.3392 474.408 39.9995C474.408 46.6597 474.928 52.059 475.57 52.059Z" fill="#267BA2"/>
<path d="M478.66 53.403C479.372 53.403 479.949 47.4018 479.949 39.9989C479.949 32.596 479.372 26.5947 478.66 26.5947C477.949 26.5947 477.372 32.596 477.372 39.9989C477.372 47.4018 477.949 53.403 478.66 53.403Z" fill="#267BA2"/>
<path d="M482.096 54.8896C482.885 54.8896 483.525 48.2232 483.525 40C483.525 31.7767 482.885 25.1104 482.096 25.1104C481.306 25.1104 480.667 31.7767 480.667 40C480.667 48.2232 481.306 54.8896 482.096 54.8896Z" fill="#267BA2"/>
<path d="M485.911 56.5436C486.79 56.5436 487.502 49.1366 487.502 39.9996C487.502 30.8626 486.79 23.4556 485.911 23.4556C485.033 23.4556 484.32 30.8626 484.32 39.9996C484.32 49.1366 485.033 56.5436 485.911 56.5436Z" fill="#267BA2"/>
<rect x="398.4" y="8.4" width="63.2" height="63.2" rx="31.6" fill="white"/>
<rect x="398.4" y="8.4" width="63.2" height="63.2" rx="31.6" stroke="#E2E4E9" stroke-width="0.8"/>
<path d="M431.781 50.6585C431.813 47.4276 430.994 44.8003 429.952 44.7901C428.91 44.7799 428.04 47.3908 428.008 50.6216C427.977 53.8525 428.796 56.4798 429.838 56.49C430.88 56.5002 431.75 53.8893 431.781 50.6585Z" fill="#B33BD1"/>
<path d="M425.738 49.924C427.512 47.2232 428.243 44.5701 427.372 43.9981C426.501 43.4262 424.358 45.152 422.584 47.8528C420.811 50.5536 420.079 53.2067 420.95 53.7787C421.821 54.3506 423.965 52.6248 425.738 49.924Z" fill="#B33BD1"/>
<path d="M421.044 46.0496C423.997 44.7365 426.046 42.9002 425.623 41.9481C425.199 40.996 422.463 41.2887 419.511 42.6019C416.559 43.915 414.509 45.7513 414.932 46.7034C415.356 47.6555 418.092 47.3627 421.044 46.0496Z" fill="#B33BD1"/>
<path d="M425.269 39.278C425.427 38.2481 422.967 37.0148 419.774 36.5233C416.58 36.0317 413.863 36.4682 413.705 37.4981C413.546 38.528 416.006 39.7612 419.2 40.2528C422.393 40.7443 425.11 40.3078 425.269 39.278Z" fill="#B33BD1"/>
<path d="M426.415 36.8241C427.105 36.0433 425.701 33.6758 423.28 31.5362C420.859 29.3965 418.337 28.2949 417.647 29.0757C416.957 29.8565 418.361 32.224 420.782 34.3637C423.203 36.5033 425.725 37.6049 426.415 36.8241Z" fill="#B33BD1"/>
<path d="M428.699 35.3896C429.701 35.1059 429.801 32.3556 428.921 29.2467C428.041 26.1377 426.515 23.8475 425.513 24.1312C424.51 24.4149 424.41 27.1652 425.29 30.2741C426.17 33.383 427.696 35.6733 428.699 35.3896Z" fill="#B33BD1"/>
<path d="M434.899 30.3712C435.84 27.2802 435.794 24.5285 434.797 24.2251C433.801 23.9216 432.23 26.1814 431.289 29.2723C430.348 32.3633 430.393 35.115 431.39 35.4184C432.387 35.7219 433.958 33.4622 434.899 30.3712Z" fill="#B33BD1"/>
<path d="M439.329 34.5476C441.791 32.4556 443.241 30.116 442.566 29.322C441.891 28.5278 439.348 29.5799 436.886 31.6718C434.423 33.7638 432.974 36.1034 433.649 36.8975C434.324 37.6916 436.867 36.6395 439.329 34.5476Z" fill="#B33BD1"/>
<path d="M440.794 40.4572C443.996 40.0287 446.48 38.8442 446.342 37.8113C446.204 36.7786 443.496 36.2886 440.293 36.717C437.091 37.1455 434.607 38.33 434.745 39.3629C434.883 40.3956 437.591 40.8856 440.794 40.4572Z" fill="#B33BD1"/>
<path d="M444.925 46.9974C445.367 46.0539 443.354 44.1776 440.428 42.8065C437.502 41.4354 434.772 41.0888 434.33 42.0323C433.888 42.9758 435.901 44.8522 438.827 46.2233C441.752 47.5944 444.482 47.941 444.925 46.9974Z" fill="#B33BD1"/>
<path d="M438.771 53.9596C439.653 53.405 438.974 50.738 437.254 48.0027C435.534 45.2675 433.425 43.4998 432.543 44.0544C431.661 44.609 432.34 47.2761 434.059 50.0113C435.779 52.7466 437.889 54.5143 438.771 53.9596Z" fill="#B33BD1"/>
<rect x="10.4" y="8.4" width="63.2" height="63.2" rx="31.6" fill="white"/>
<rect x="10.4" y="8.4" width="63.2" height="63.2" rx="31.6" stroke="#E2E4E9" stroke-width="0.8"/>
<path fill-rule="evenodd" clip-rule="evenodd" d="M42 56C50.8366 56 58 48.8365 58 40C58 31.1634 50.8366 24 42 24C33.1634 24 26 31.1634 26 40C26 48.8365 33.1634 56 42 56ZM44.4696 36.362C45.8334 34.9981 45.8334 32.7868 44.4696 31.4229C43.1056 30.059 40.8944 30.059 39.5304 31.4229C38.1666 32.7868 38.1666 34.9981 39.5304 36.362L42 38.8316L44.4696 36.362ZM45.638 42.4696C47.0019 43.8335 49.2132 43.8335 50.5771 42.4696C51.9409 41.1056 51.9409 38.8944 50.5771 37.5304C49.2132 36.1666 47.0019 36.1666 45.638 37.5304L43.1684 40L45.638 42.4696ZM44.4696 48.5771C45.8334 47.2132 45.8334 45.0019 44.4696 43.638L42 41.1684L39.5304 43.638C38.1666 45.0019 38.1666 47.2132 39.5304 48.5771C40.8944 49.941 43.1056 49.941 44.4696 48.5771ZM33.4229 42.4696C32.059 41.1056 32.059 38.8944 33.4229 37.5304C34.7868 36.1666 36.9981 36.1666 38.362 37.5304L40.8316 40L38.362 42.4696C36.9981 43.8335 34.7868 43.8335 33.4229 42.4696Z" fill="#7F57F1"/>
<rect x="54.4" y="8.4" width="63.2" height="63.2" rx="31.6" fill="white"/>
<rect x="54.4" y="8.4" width="63.2" height="63.2" rx="31.6" stroke="#E2E4E9" stroke-width="0.8"/>
<path fill-rule="evenodd" clip-rule="evenodd" d="M86 56C94.8366 56 102 48.8365 102 40C102 31.1634 94.8366 24 86 24C77.1634 24 70 31.1634 70 40C70 48.8365 77.1634 56 86 56ZM90.9915 31.4535C91.2344 30.5904 90.3969 30.0801 89.632 30.625L78.9545 38.2317C78.125 38.8226 78.2555 40 79.1505 40H81.9622V39.9782H87.442L82.977 41.5537L81.0086 48.5465C80.7656 49.4096 81.6031 49.9199 82.368 49.3749L93.0455 41.7684C93.8751 41.1774 93.7445 40 92.8495 40H88.5857L90.9915 31.4535Z" fill="#F15757"/>
<rect x="98.4" y="8.4" width="63.2" height="63.2" rx="31.6" fill="white"/>
<rect x="98.4" y="8.4" width="63.2" height="63.2" rx="31.6" stroke="#E2E4E9" stroke-width="0.8"/>
<path fill-rule="evenodd" clip-rule="evenodd" d="M120.842 26.8783C119.698 27.6786 118.663 28.6248 117.764 29.6899C121.436 29.3491 126.1 29.9056 131.515 32.6133C137.298 35.5047 141.955 35.6025 145.196 34.9773C144.902 34.087 144.531 33.2313 144.093 32.4179C140.383 32.8092 135.627 32.2913 130.084 29.52C126.565 27.7601 123.462 27.0352 120.842 26.8783ZM141.926 29.3333C138.996 26.06 134.739 24 130 24C128.608 24 127.258 24.1777 125.971 24.5116C127.714 24.9873 129.566 25.6832 131.515 26.6578C135.574 28.6868 139.077 29.3401 141.926 29.3333ZM145.889 38.1025C141.973 38.8756 136.567 38.7168 130.084 35.4755C124.024 32.4453 119.2 32.4834 115.947 33.2064C115.779 33.2437 115.615 33.2829 115.455 33.3237C115.029 34.25 114.689 35.2241 114.445 36.2356C114.706 36.166 114.975 36.0998 115.253 36.0381C119.2 35.161 124.776 35.1991 131.515 38.5689C137.576 41.5991 142.4 41.5609 145.653 40.838C145.764 40.8133 145.874 40.7877 145.982 40.7613C145.994 40.509 146 40.2552 146 40C146 39.358 145.962 38.7248 145.889 38.1025ZM145.46 44.1378C141.583 44.8157 136.334 44.5555 130.084 41.431C124.024 38.4008 119.2 38.4389 115.947 39.1619C115.225 39.3223 114.575 39.5177 114.002 39.7241C114.001 39.8158 114 39.9078 114 40C114 48.8365 121.163 56 130 56C137.406 56 143.636 50.9687 145.46 44.1378Z" fill="#7F57F1"/>
<rect x="142.4" y="8.4" width="63.2" height="63.2" rx="31.6" fill="white"/>
<rect x="142.4" y="8.4" width="63.2" height="63.2" rx="31.6" stroke="#E2E4E9" stroke-width="0.8"/>
<path d="M180.356 41.7769C180.086 42.9173 179.517 43.9419 178.735 44.7628L185.066 51.0933L187.369 48.7899L180.356 41.7769Z" fill="#F97316"/>
<path d="M178.671 44.8286C177.88 45.6364 176.881 46.2392 175.76 46.5498L178.064 55.1466L181.21 54.3035L178.671 44.8286Z" fill="#F97316"/>
<path d="M178.128 24.8436L174.982 24.0005L172.33 33.8961L169.936 24.9623L166.79 25.8054L169.376 35.4577L162.934 29.0157L160.631 31.319L167.697 38.3853L158.897 36.0273L158.054 39.1737L167.669 41.7501C167.559 41.2753 167.501 40.7805 167.501 40.2722C167.501 36.6741 170.418 33.7573 174.016 33.7573C177.614 33.7573 180.531 36.6741 180.531 40.2722C180.531 40.7773 180.473 41.2689 180.364 41.7409L189.102 44.0823L189.945 40.9359L180.292 38.3493L189.093 35.9913L188.25 32.8449L178.597 35.4313L185.039 28.9892L182.736 26.6859L175.767 33.6541L178.128 24.8436Z" fill="#F97316"/>
<path d="M175.643 46.5818C175.123 46.7155 174.578 46.7866 174.016 46.7866C173.414 46.7866 172.831 46.705 172.278 46.5522L169.973 55.1569L173.119 55.9999L175.643 46.5818Z" fill="#F97316"/>
<path d="M172.167 46.5206C171.063 46.1945 170.082 45.584 169.307 44.7739L162.961 51.1199L165.264 53.4233L172.167 46.5206Z" fill="#F97316"/>
<path d="M169.254 44.718C168.493 43.9028 167.938 42.8919 167.674 41.769L158.907 44.1181L159.75 47.2645L169.254 44.718Z" fill="#F97316"/>
<rect x="186.4" y="8.4" width="63.2" height="63.2" rx="31.6" fill="white"/>
<rect x="186.4" y="8.4" width="63.2" height="63.2" rx="31.6" stroke="#E2E4E9" stroke-width="0.8"/>
<path fill-rule="evenodd" clip-rule="evenodd" d="M220.797 27.527C221.907 26.4168 223.707 26.4168 224.817 27.527C225.928 28.6372 225.928 30.4372 224.817 31.5475L218.049 38.3162C216.105 35.7117 216.316 32.0075 218.682 29.6419L220.797 27.527Z" fill="#4F9E91"/>
<path fill-rule="evenodd" clip-rule="evenodd" d="M230.473 42.7978C231.583 43.908 231.583 45.7081 230.473 46.8182C229.363 47.9285 227.563 47.9285 226.453 46.8182L219.684 40.0496C222.289 38.1062 225.993 38.3173 228.358 40.6829L230.473 42.7978Z" fill="#EBE1C5"/>
<path fill-rule="evenodd" clip-rule="evenodd" d="M215.202 52.4742C214.092 53.5844 212.292 53.5844 211.182 52.4742C210.072 51.3639 210.072 49.5639 211.182 48.4537L217.95 41.6851C219.894 44.2895 219.683 47.9937 217.317 50.3592L215.202 52.4742Z" fill="#EBCC6E"/>
<path fill-rule="evenodd" clip-rule="evenodd" d="M205.526 37.2037C204.415 36.0935 204.415 34.2935 205.526 33.1833C206.636 32.073 208.436 32.073 209.546 33.1833L216.315 39.952C213.71 41.8953 210.006 41.6842 207.641 39.3187L205.526 37.2037Z" fill="#ED834E"/>
<path fill-rule="evenodd" clip-rule="evenodd" d="M219.284 51.6459C220.921 49.8258 221.682 47.4967 221.567 45.2036L224.817 48.4543C224.825 48.4624 224.834 48.4705 224.842 48.4786V50.7994C224.842 52.3695 223.569 53.6423 221.999 53.6423C220.724 53.6423 219.644 52.8026 219.284 51.6459Z" fill="#ED834E"/>
<path fill-rule="evenodd" clip-rule="evenodd" d="M206.355 41.2852C208.175 42.9223 210.504 43.6832 212.797 43.5677L209.546 46.8184C209.538 46.8265 209.53 46.8347 209.522 46.8428H207.201C205.631 46.8428 204.358 45.57 204.358 43.9999C204.358 42.7247 205.198 41.6455 206.355 41.2852Z" fill="#4F9E91"/>
<path fill-rule="evenodd" clip-rule="evenodd" d="M229.645 38.7159C227.825 37.0788 225.496 36.3179 223.203 36.4332L226.453 33.1826C226.461 33.1745 226.469 33.1664 226.478 33.1582H228.798C230.369 33.1582 231.642 34.4311 231.642 36.0012C231.642 37.2764 230.802 38.3556 229.645 38.7159Z" fill="#EBCC6E"/>
<path fill-rule="evenodd" clip-rule="evenodd" d="M216.715 28.3548C215.078 30.1749 214.317 32.5039 214.432 34.7971L211.182 31.5464C211.173 31.5383 211.165 31.5303 211.157 31.5222V29.2014C211.157 27.6313 212.43 26.3584 214 26.3584C215.275 26.3584 216.355 27.1982 216.715 28.3548Z" fill="#EBE1C5"/>
<path fill-rule="evenodd" clip-rule="evenodd" d="M214 24.0459C211.153 24.0459 208.844 26.3543 208.844 29.2018V30.2046C207.131 29.757 205.233 30.2044 203.89 31.5469C201.877 33.5604 201.877 36.8249 203.89 38.8385L204.599 39.5475C203.071 40.4424 202.045 42.1012 202.045 43.9997C202.045 46.8472 204.354 49.1556 207.201 49.1556H208.204C207.756 50.8687 208.204 52.7673 209.546 54.1097C211.56 56.1232 214.824 56.1232 216.838 54.1097L218.953 51.9948C220.818 50.1291 221.69 47.6456 221.567 45.2029L224.818 48.4536C226.831 50.4671 230.096 50.4671 232.109 48.4536C234.123 46.4401 234.123 43.1755 232.109 41.1621L231.401 40.4531C232.928 39.5582 233.954 37.8994 233.954 36.0009C233.954 33.1534 231.645 30.845 228.798 30.845H227.795C228.243 29.1318 227.796 27.2333 226.453 25.8908C224.44 23.8773 221.175 23.8773 219.162 25.8908L217.047 28.0057C215.181 29.8714 214.31 32.3549 214.433 34.7976L211.182 31.5469C211.174 31.5388 211.166 31.5307 211.157 31.5226V29.2018C211.157 27.6317 212.43 26.3589 214 26.3589C215.276 26.3589 216.355 27.1986 216.715 28.3553C216.822 28.2365 216.932 28.12 217.047 28.0057L218.453 26.5998C217.558 25.072 215.899 24.0459 214 24.0459ZM226.477 33.1581C226.469 33.1661 226.461 33.1743 226.453 33.1824L223.203 36.433C225.496 36.3177 227.825 37.0784 229.645 38.7156C230.801 38.3553 231.641 37.2761 231.641 36.0009C231.641 34.4309 230.369 33.1581 228.798 33.1581H226.477ZM209.522 46.8425C209.53 46.8344 209.538 46.8262 209.546 46.8181L212.797 43.5674C210.504 43.6829 208.175 42.922 206.355 41.2849C205.198 41.6453 204.358 42.7244 204.358 43.9997C204.358 45.5697 205.631 46.8425 207.201 46.8425H209.522ZM221.999 55.9547C220.101 55.9547 218.442 54.9285 217.547 53.4007L218.953 51.9948C219.067 51.8805 219.178 51.764 219.284 51.6452C219.645 52.8019 220.724 53.6417 221.999 53.6417C223.569 53.6417 224.842 52.3689 224.842 50.7988V48.478C225.508 49.1355 226.309 49.5748 227.155 49.7959V50.7988C227.155 53.6463 224.847 55.9547 221.999 55.9547ZM224.818 27.5263C223.707 26.4161 221.907 26.4161 220.797 27.5263L218.682 29.6413C216.317 32.0069 216.106 35.711 218.049 38.3155L224.818 31.5468C225.928 30.4365 225.928 28.6365 224.818 27.5263ZM230.473 46.818C231.584 45.7078 231.584 43.9078 230.473 42.7976L228.359 40.6826C225.993 38.3171 222.289 38.106 219.684 40.0493L226.453 46.818C227.563 47.9283 229.364 47.9283 230.473 46.818ZM215.202 52.4741C214.092 53.5844 212.292 53.5844 211.182 52.4741C210.072 51.3639 210.072 49.5639 211.182 48.4537L217.951 41.6849C219.894 44.2894 219.683 47.9937 217.317 50.3592L215.202 52.4741ZM205.526 33.1824C204.416 34.2926 204.416 36.0926 205.526 37.2029L207.641 39.3178C210.006 41.6833 213.711 41.8944 216.315 39.9511L209.546 33.1824C208.436 32.0722 206.636 32.0722 205.526 33.1824Z" fill="#3D3A2C"/>
<rect x="232.5" y="0.5" width="183" height="79" rx="39.5" fill="white"/>
<rect x="232.5" y="0.5" width="183" height="79" rx="39.5" stroke="#E2E4E9"/>
<rect x="264" y="24" width="32" height="32" rx="8" fill="#635BFF"/>
<path d="M272.474 34.9425C272.048 33.4373 273.437 32.0479 274.943 32.4737L279.456 33.7502C279.812 33.8509 280.188 33.8509 280.544 33.7502L285.057 32.4737C286.563 32.0479 287.952 33.4373 287.526 34.9425L286.25 39.4557C286.149 39.8116 286.149 40.1884 286.25 40.5443L287.526 45.0575C287.952 46.5627 286.563 47.9521 285.057 47.5263L280.544 46.2498C280.188 46.1491 279.812 46.1491 279.456 46.2498L274.943 47.5263C273.437 47.9521 272.048 46.5627 272.474 45.0575L273.75 40.5443C273.851 40.1884 273.851 39.8116 273.75 39.4557L272.474 34.9425Z" fill="white"/>
<path d="M308.84 49L314.96 31.24H319.208L325.352 49H321.944L320.672 45.256H313.52L312.248 49H308.84ZM314.456 42.424H319.736L317.096 34.576L314.456 42.424ZM326.475 49V31.24H329.739V49H326.475ZM336.658 49.24C335.618 49.24 334.762 49.104 334.09 48.832C333.418 48.544 332.882 48.192 332.482 47.776C332.098 47.344 331.81 46.92 331.618 46.504C331.426 46.088 331.298 45.744 331.234 45.472C331.186 45.184 331.162 45.04 331.162 45.04H334.186C334.186 45.04 334.21 45.128 334.258 45.304C334.322 45.48 334.434 45.688 334.594 45.928C334.77 46.152 335.034 46.352 335.386 46.528C335.738 46.704 336.202 46.792 336.778 46.792C337.466 46.792 337.962 46.648 338.266 46.36C338.57 46.056 338.722 45.72 338.722 45.352C338.722 45 338.586 44.72 338.314 44.512C338.058 44.288 337.674 44.12 337.162 44.008L335.41 43.648C334.706 43.504 334.05 43.296 333.442 43.024C332.834 42.736 332.338 42.352 331.954 41.872C331.57 41.376 331.378 40.744 331.378 39.976C331.378 38.84 331.81 37.904 332.674 37.168C333.538 36.416 334.714 36.04 336.202 36.04C337.146 36.04 337.922 36.168 338.53 36.424C339.154 36.68 339.65 37 340.018 37.384C340.402 37.768 340.682 38.152 340.858 38.536C341.05 38.92 341.17 39.248 341.218 39.52C341.282 39.776 341.314 39.904 341.314 39.904H338.386C338.386 39.904 338.362 39.832 338.314 39.688C338.266 39.528 338.162 39.352 338.002 39.16C337.858 38.968 337.634 38.8 337.33 38.656C337.042 38.496 336.65 38.416 336.154 38.416C335.482 38.416 335.002 38.56 334.714 38.848C334.442 39.136 334.306 39.44 334.306 39.76C334.306 40.112 334.458 40.384 334.762 40.576C335.066 40.768 335.458 40.912 335.938 41.008L337.594 41.368C338.778 41.608 339.746 42.024 340.498 42.616C341.266 43.208 341.65 44.064 341.65 45.184C341.65 45.936 341.45 46.624 341.05 47.248C340.666 47.856 340.098 48.344 339.346 48.712C338.61 49.064 337.714 49.24 336.658 49.24ZM342.978 53.704V36.28H346.17V38.056H346.338C346.45 37.864 346.65 37.608 346.938 37.288C347.242 36.968 347.658 36.68 348.186 36.424C348.714 36.168 349.386 36.04 350.202 36.04C351.162 36.04 351.994 36.232 352.698 36.616C353.402 36.984 353.986 37.488 354.45 38.128C354.914 38.752 355.258 39.456 355.482 40.24C355.722 41.024 355.842 41.824 355.842 42.64C355.842 43.456 355.722 44.256 355.482 45.04C355.258 45.824 354.914 46.536 354.45 47.176C353.986 47.8 353.402 48.304 352.698 48.688C351.994 49.056 351.162 49.24 350.202 49.24C349.386 49.24 348.714 49.112 348.186 48.856C347.658 48.584 347.242 48.288 346.938 47.968C346.65 47.648 346.45 47.4 346.338 47.224H346.17V53.704H342.978ZM346.122 42.64C346.122 43.296 346.242 43.928 346.482 44.536C346.722 45.144 347.082 45.648 347.562 46.048C348.042 46.432 348.642 46.624 349.362 46.624C350.098 46.624 350.706 46.432 351.186 46.048C351.666 45.648 352.026 45.144 352.266 44.536C352.506 43.928 352.626 43.296 352.626 42.64C352.626 41.984 352.506 41.352 352.266 40.744C352.026 40.136 351.666 39.64 351.186 39.256C350.706 38.856 350.098 38.656 349.362 38.656C348.642 38.656 348.042 38.856 347.562 39.256C347.082 39.64 346.722 40.136 346.482 40.744C346.242 41.352 346.122 41.984 346.122 42.64ZM359.109 34.312C358.549 34.312 358.085 34.128 357.717 33.76C357.365 33.392 357.189 32.952 357.189 32.44C357.189 31.928 357.365 31.488 357.717 31.12C358.085 30.752 358.549 30.568 359.109 30.568C359.669 30.568 360.133 30.752 360.501 31.12C360.869 31.488 361.053 31.928 361.053 32.44C361.053 32.952 360.869 33.392 360.501 33.76C360.133 34.128 359.669 34.312 359.109 34.312ZM357.525 49V36.28H360.717V49H357.525ZM362.593 49V36.28H365.761V38.032H365.881C366.105 37.536 366.473 37.08 366.985 36.664C367.497 36.248 368.265 36.04 369.289 36.04C369.609 36.04 369.873 36.064 370.081 36.112C370.289 36.144 370.393 36.16 370.393 36.16V39.256C370.393 39.256 370.273 39.24 370.033 39.208C369.809 39.176 369.529 39.16 369.193 39.16C368.073 39.16 367.225 39.472 366.649 40.096C366.073 40.72 365.785 41.728 365.785 43.12V49H362.593ZM376.601 49.24C375.513 49.24 374.569 49.056 373.769 48.688C372.985 48.304 372.329 47.8 371.801 47.176C371.289 46.536 370.905 45.824 370.649 45.04C370.393 44.256 370.265 43.456 370.265 42.64C370.265 41.824 370.385 41.032 370.625 40.264C370.881 39.48 371.257 38.768 371.753 38.128C372.265 37.488 372.913 36.984 373.697 36.616C374.481 36.232 375.409 36.04 376.481 36.04C377.633 36.04 378.649 36.296 379.529 36.808C380.409 37.32 381.097 38.072 381.593 39.064C382.089 40.04 382.337 41.256 382.337 42.712V43.528H373.481C373.529 44.392 373.825 45.144 374.369 45.784C374.913 46.408 375.657 46.72 376.601 46.72C377.145 46.72 377.593 46.632 377.945 46.456C378.297 46.28 378.569 46.08 378.761 45.856C378.953 45.616 379.089 45.416 379.169 45.256C379.249 45.08 379.289 44.992 379.289 44.992H382.241C382.241 44.992 382.201 45.136 382.121 45.424C382.041 45.696 381.889 46.048 381.665 46.48C381.457 46.896 381.145 47.32 380.729 47.752C380.313 48.168 379.769 48.52 379.097 48.808C378.425 49.096 377.593 49.24 376.601 49.24ZM373.481 41.44H379.265C379.217 40.448 378.921 39.712 378.377 39.232C377.833 38.752 377.193 38.512 376.457 38.512C375.641 38.512 374.961 38.776 374.417 39.304C373.873 39.816 373.561 40.528 373.481 41.44Z" fill="black"/>
<defs>
<linearGradient id="paint0_linear_28_1141" x1="596.23" y1="30.8143" x2="616.521" y2="30.8143" gradientUnits="userSpaceOnUse">
<stop stop-color="#64C2DB"/>
<stop offset="0.307292" stop-color="#7476ED"/>
<stop offset="0.604167" stop-color="#C994DF"/>
<stop offset="1" stop-color="#E56F8C"/>
</linearGradient>
<clipPath id="clip0_28_1141">
<rect width="35.2" height="13.5385" fill="white" transform="translate(544.4 33.231)"/>
</clipPath>
<clipPath id="clip1_28_1141">
<rect width="25.6" height="21.6615" fill="white" transform="translate(505.2 29.1694)"/>
</clipPath>
</defs>
</svg>
