<svg width="56" height="56" viewBox="0 0 56 56" fill="none" xmlns="http://www.w3.org/2000/svg">
<rect x="0.5" y="0.5" width="55" height="55" rx="13.75" fill="#635BFF"/>
<path d="M15.0642 19.3075C14.3324 16.7203 16.7203 14.3324 19.3075 15.0642L27.0644 17.2582C27.6761 17.4312 28.3239 17.4312 28.9356 17.2582L36.6925 15.0642C39.2797 14.3324 41.6676 16.7203 40.9358 19.3075L38.7418 27.0644C38.5688 27.6761 38.5688 28.3239 38.7418 28.9356L40.9358 36.6925C41.6676 39.2797 39.2797 41.6676 36.6925 40.9358L28.9356 38.7418C28.3239 38.5688 27.6761 38.5688 27.0644 38.7418L19.3075 40.9358C16.7203 41.6676 14.3324 39.2797 15.0642 36.6925L17.2582 28.9356C17.4312 28.3239 17.4312 27.6761 17.2582 27.0644L15.0642 19.3075Z" fill="white"/>
</svg>
