<svg width="135" height="32" viewBox="0 0 135 32" fill="none" xmlns="http://www.w3.org/2000/svg">
<g clip-path="url(#clip0_1_613)">
<path d="M64.6859 0C63.9362 3.30126 63.6404 4.60446 59.168 5.01203C63.6404 4.60446 63.3444 5.90766 62.5948 9.20896C63.34 5.92727 63.6404 4.60446 68.0424 4.20328C63.6404 4.60446 63.9407 3.28164 64.6859 0Z" fill="#283841"/>
<path d="M66.619 8.75836C65.3613 9.55228 63.8344 9.741 62.3573 9.915C60.7393 10.1056 59.1376 10.3031 57.5544 10.507C57.9737 8.66164 58.169 7.91389 60.6755 7.68547C58.1427 7.91628 58.3155 7.15519 58.7442 5.26704C58.3129 7.16648 58.1427 7.91629 55.5695 8.15076C58.1161 7.91871 57.9756 8.65068 57.5544 10.507C52.8278 11.1159 48.2647 11.7822 43.9177 12.492C48.9542 11.8779 55.9544 11.2796 61.9622 10.7661C63.9124 10.5994 66.5286 10.3933 67.0844 12.2701C67.2602 12.8639 67.2632 13.5956 67.157 14.4696H64.4987L62.3043 24.7931H68.1443L70.3387 14.4696H67.3753C67.8288 13.09 68.3953 12.0136 69.3238 11.1837C70.5058 10.1273 72.1768 9.9062 73.7579 9.79212C105.893 7.47355 131.194 9.1678 131.61 13.8946C131.729 15.2404 129.818 16.697 126.284 18.1689V18.1743L126.272 18.1791V18.1689C127.582 17.6151 130.217 16.2424 130.379 14.4696H124.784L122.573 19.5763C122.571 19.5854 122.564 19.5946 122.553 19.6038H122.539L122.545 19.5763C122.535 19.0073 122.519 18.4384 122.499 17.8695C122.489 17.3005 122.478 16.7361 122.465 16.1764C122.455 15.6074 122.44 15.0385 122.42 14.4696H114.919L112.725 24.7931H117.862L119.07 19.1083L119.073 19.0945H119.087C119.089 19.0945 119.091 19.0948 119.093 19.0953C119.096 19.0965 119.099 19.099 119.099 19.1028C119.099 19.1039 119.099 19.1051 119.099 19.1064L119.098 19.1083C119.131 20.0534 119.161 20.9986 119.185 21.9438C119.209 22.889 119.237 23.8388 119.269 24.7931H122.857L125.454 19.067L125.456 19.0532H125.471C125.476 19.0532 125.479 19.0548 125.481 19.058C125.482 19.0586 125.482 19.0593 125.482 19.06V19.0612C125.482 19.0628 125.482 19.0648 125.482 19.067L124.264 24.7931H129.683L131.619 15.6802C133.59 14.4817 134.598 13.323 134.48 12.2468C133.919 7.08449 107.655 5.63765 74.3194 8.66652C74.2566 8.67228 74.1931 8.67812 74.1292 8.68404L74.1205 8.68484C72.5503 8.83012 70.6646 9.00452 69.8654 7.67975C69.0979 6.40759 69.5876 4.25067 70.2914 1.15143C69.4282 4.95267 68.8896 7.32512 66.619 8.75836Z" fill="#283841"/>
<path fill-rule="evenodd" clip-rule="evenodd" d="M44.5591 14.6622C43.5567 14.2584 42.2205 14.0565 40.5506 14.0565C39.7532 14.0565 39.0107 14.107 38.3231 14.208C37.6449 14.3088 37.018 14.4557 36.4423 14.6484C35.8666 14.8412 35.3441 15.0705 34.8747 15.3367C34.4167 15.5936 34.0025 15.8872 33.6321 16.2176C33.2636 16.5388 32.9409 16.8875 32.6639 17.2637C32.3982 17.6308 32.1756 18.0162 31.9959 18.42C31.8277 18.8145 31.6986 19.2229 31.6089 19.645C31.4997 20.1589 31.4553 20.6544 31.4758 21.1316C31.4984 21.5996 31.5829 22.0401 31.7297 22.453C31.8878 22.8568 32.11 23.2239 32.3963 23.5542C32.692 23.8846 33.0537 24.169 33.4813 24.4076C33.9111 24.637 34.4078 24.816 34.9715 24.9444C35.5446 25.0729 36.1877 25.1372 36.9007 25.1372C37.229 25.1372 37.5134 25.1234 37.7538 25.0959C38.0016 25.0775 38.257 25.0454 38.5201 24.9995C38.7853 24.4581 39.0514 23.9121 39.3186 23.3615C39.597 22.8017 39.8699 22.2465 40.1369 21.696C40.2131 21.539 40.2892 21.3824 40.3652 21.2262C40.4358 21.081 40.5065 20.936 40.5769 20.7914C40.6967 20.546 40.8161 20.3016 40.9354 20.058L39.929 24.793H45.8957L46.9022 20.058H40.9354L47.3131 18.654C47.3483 17.7822 47.1482 17.0022 46.7129 16.314C46.2794 15.6165 45.5615 15.066 44.5591 14.6622ZM40.9354 20.058C40.782 20.2507 40.5621 20.402 40.276 20.5122C39.9919 20.6132 39.6106 20.6636 39.1321 20.6636C38.8225 20.6636 38.562 20.6315 38.3506 20.5672C38.139 20.503 37.9746 20.4159 37.8573 20.3057C37.74 20.1956 37.6621 20.0763 37.6238 19.9479C37.5873 19.8102 37.5847 19.668 37.6159 19.5212C37.6589 19.3192 37.7505 19.1312 37.8907 18.9568C38.0423 18.7732 38.2574 18.6218 38.5361 18.5025C38.8242 18.3832 39.1885 18.3236 39.6295 18.3236C40.0985 18.3236 40.4582 18.397 40.7085 18.5438C40.9587 18.6907 41.1034 18.8925 41.1426 19.1495C41.1818 19.4064 41.1128 19.7092 40.9354 20.058Z" fill="#283841"/>
<path d="M57.3923 14.0842C57.0793 14.0657 56.753 14.0565 56.4136 14.0565C55.5505 14.0565 54.7441 14.1208 53.9945 14.2492C53.2561 14.3685 52.5754 14.5475 51.9525 14.786C51.3314 15.0155 50.77 15.2953 50.2682 15.6257C49.7778 15.9469 49.3433 16.314 48.9647 16.7269C48.5955 17.1398 48.2841 17.5895 48.0306 18.0758C47.7865 18.5622 47.6069 19.076 47.4919 19.6175C47.481 19.6684 47.4709 19.7192 47.4614 19.7699C54.1405 19.6329 55.744 18.0059 57.3923 14.0842Z" fill="#283841"/>
<path d="M47.4614 19.7699C47.3938 20.1309 47.3594 20.4886 47.3582 20.8426C47.3662 21.2464 47.425 21.6318 47.5346 21.9988C47.6535 22.3659 47.8234 22.7146 48.0439 23.045C48.2759 23.3662 48.5653 23.6598 48.9121 23.9259C49.2683 24.192 49.6934 24.4214 50.1871 24.6142C50.6829 24.7977 51.2483 24.9399 51.8836 25.0408C52.2734 25.1076 52.6916 25.1542 53.1382 25.1804C54.4964 21.2615 54.1289 19.6684 47.4614 19.7699Z" fill="#283841"/>
<path d="M53.187 25.1832C53.462 25.1984 53.7476 25.206 54.0438 25.206C55.1602 25.206 56.1621 25.105 57.0493 24.9032C57.944 24.7105 58.7332 24.4397 59.4172 24.091C60.1031 23.7332 60.6881 23.3202 61.1721 22.8522C61.6582 22.375 62.048 21.8657 62.3413 21.3244C62.6365 20.7737 62.8466 20.2048 62.9714 19.6175C62.9803 19.5757 62.9888 19.5341 62.9967 19.4926C56.4253 19.6281 54.8273 21.2778 53.187 25.1832Z" fill="#283841"/>
<path d="M62.9967 19.4927C56.4455 19.5916 56.0936 17.9795 57.4415 14.0872C58.6983 14.1655 59.7404 14.3939 60.5676 14.7723C61.6107 15.2495 62.3297 15.9056 62.7245 16.7407C63.1039 17.5435 63.1947 18.461 62.9967 19.4927Z" fill="#283841"/>
<path fill-rule="evenodd" clip-rule="evenodd" d="M93.2048 18.5914L98.904 18.3374C99.1832 17.6858 99.2424 17.0985 99.0816 16.5755C98.9208 16.0524 98.5664 15.6028 98.0176 15.2265C97.4784 14.8503 96.7704 14.5612 95.8936 14.3593C95.0272 14.1575 94.016 14.0565 92.8624 14.0565C92.0464 14.0565 91.252 14.107 90.48 14.208C89.7176 14.3088 89.0016 14.4557 88.332 14.6484C87.672 14.8412 87.076 15.0843 86.5448 15.378C86.024 15.6624 85.5968 15.9974 85.2616 16.3828C84.928 16.759 84.712 17.1812 84.612 17.6492C84.5184 18.0896 84.5464 18.4888 84.6952 18.8467C84.8464 19.1953 85.1624 19.4982 85.6424 19.7552C86.1224 20.012 86.8064 20.214 87.6944 20.3608C88.2824 20.4517 88.9792 20.5126 89.7848 20.5435L83.9584 20.9252C83.7328 21.6776 83.7216 22.3245 83.9256 22.866C84.1392 23.4074 84.5368 23.8524 85.1192 24.2012C85.704 24.5407 86.448 24.793 87.3504 24.9582C88.2536 25.1234 89.2776 25.206 90.4224 25.206C91.4544 25.206 92.432 25.128 93.3568 24.972C94.2888 24.8252 95.1232 24.6049 95.8616 24.3112C96.6104 24.0084 97.2192 23.6368 97.6888 23.1964C98.1688 22.7467 98.4704 22.2328 98.5928 21.6547C98.7064 21.1224 98.6816 20.6636 98.52 20.2782C98.36 19.8836 98.0248 19.5624 97.5144 19.3147C97.0064 19.0577 96.2912 18.8696 95.3688 18.7503C94.7552 18.6709 94.0336 18.618 93.2048 18.5914ZM93.044 18.5866C92.6752 18.5764 92.2848 18.5714 91.8744 18.5714H91.5232C91.2696 18.5714 91.0664 18.5576 90.912 18.53C90.768 18.5025 90.6656 18.4567 90.604 18.3924C90.5448 18.319 90.5264 18.2272 90.5496 18.1172C90.5696 18.0254 90.616 17.9382 90.6896 17.8556C90.7728 17.773 90.872 17.7042 90.9872 17.6492C91.1136 17.5849 91.2544 17.539 91.4104 17.5115C91.568 17.4748 91.7408 17.4564 91.9288 17.4564C92.2288 17.4564 92.4872 17.4977 92.7048 17.5803C92.9328 17.6537 93.0848 17.7776 93.16 17.952C93.2368 18.1146 93.1976 18.3261 93.044 18.5866ZM90.0392 20.5521C89.9168 20.8158 89.8904 21.0365 89.9616 21.2142C90.0448 21.3977 90.2032 21.5354 90.4368 21.6272C90.6712 21.7189 90.9424 21.7648 91.252 21.7648C91.44 21.7648 91.6112 21.751 91.7672 21.7235C91.9328 21.696 92.0824 21.6547 92.216 21.5996C92.3496 21.5445 92.4584 21.4757 92.5416 21.3932C92.6264 21.3014 92.6808 21.2004 92.704 21.0903C92.7512 20.87 92.664 20.7278 92.4432 20.6636C92.232 20.5994 91.9056 20.5672 91.4648 20.5672H91.1128C90.7368 20.5672 90.3792 20.5622 90.0392 20.5521Z" fill="#283841"/>
<path d="M106.412 14.4695H100.572L99.1882 20.9803C99.0698 21.54 99.0882 22.0493 99.2434 22.5082C99.4018 22.9578 99.665 23.3523 100.034 23.6919C100.414 24.0223 100.87 24.3022 101.403 24.5315C101.945 24.761 102.538 24.9307 103.18 25.0408C103.832 25.151 104.501 25.206 105.186 25.206C106.049 25.206 106.907 25.1188 107.76 24.9445C108.623 24.7702 109.419 24.5086 110.151 24.1599C110.883 23.802 111.498 23.3615 111.994 22.8385C112.5 22.3063 112.829 21.6868 112.979 20.9803L114.363 14.4695H108.523L107.367 19.9066C107.311 20.1727 107.16 20.3746 106.915 20.5123C106.671 20.6499 106.411 20.7187 106.139 20.7187C106.008 20.7187 105.881 20.7003 105.757 20.6637C105.643 20.627 105.541 20.5765 105.451 20.5123C105.374 20.4388 105.312 20.3516 105.268 20.2507C105.233 20.1498 105.231 20.0305 105.259 19.8928L106.412 14.4695Z" fill="#283841"/>
<path fill-rule="evenodd" clip-rule="evenodd" d="M79.8103 14.4695C80.6825 14.4695 81.4177 14.5888 82.0137 14.8274C82.6217 15.0568 83.0937 15.3734 83.4305 15.7772C83.7777 16.1718 84.0065 16.6214 84.1145 17.1261C84.2233 17.6308 84.2201 18.1539 84.1049 18.6953C83.9817 19.2734 83.7521 19.824 83.4161 20.3471C83.0913 20.861 82.6649 21.3198 82.1385 21.7235C81.6209 22.1273 81.0129 22.4485 80.3152 22.6871C79.6191 22.9165 78.8442 23.0312 77.9905 23.0312H74.965L74.948 23.045H74.9339L74.931 23.0587L74.5623 24.7931H68.7083L70.9026 14.4695H79.8103ZM76.8945 20.0443C77.176 20.0443 77.4202 19.9983 77.6274 19.9066C77.8458 19.8056 78.0176 19.6818 78.1427 19.535C78.2696 19.379 78.3497 19.223 78.3828 19.067C78.4179 18.9018 78.4032 18.7503 78.3386 18.6127C78.2761 18.4659 78.1607 18.3466 77.9926 18.2548C77.8244 18.1631 77.595 18.1172 77.3042 18.1172H76.0095C76.0001 18.1172 75.9897 18.1218 75.9784 18.131L75.9755 18.1447L75.5747 20.0305C75.584 20.0305 75.5878 20.0351 75.5858 20.0443H76.8945Z" fill="#283841"/>
<path fill-rule="evenodd" clip-rule="evenodd" d="M9.77438 20.7463L9.78022 20.7187L11.1085 14.4695H5.26855L3.38806 23.3164C1.30626 24.5511 0.236816 25.7451 0.35732 26.8516C0.963726 32.4205 31.4798 33.6656 68.5169 29.6327C75.5344 28.8685 82.2825 27.9697 88.6073 26.9768C85.2553 27.2767 81.6841 27.5801 78.0237 27.8911L78.0194 27.8914L78.0126 27.892L78.0081 27.8923L78.0033 27.8927L77.9935 27.8936C74.7781 28.1667 71.4938 28.4457 68.228 28.7334C32.7762 31.8563 3.67473 30.2761 3.22787 25.2039C3.11001 23.8656 4.99838 22.4181 8.49366 20.9547C6.00312 22.0505 4.94028 23.484 4.64193 24.7931H14.4305L15.2907 20.7463H9.77438ZM8.31934 21.0086C8.26286 21.031 8.20671 21.0533 8.15095 21.0757C8.35503 20.9956 8.56287 20.9154 8.77415 20.8352C8.80727 20.8215 8.84062 20.8079 8.87414 20.7944C8.77903 20.8303 8.68486 20.8662 8.59167 20.9022C8.5427 20.9211 8.49399 20.9399 8.44551 20.9589C8.40326 20.9755 8.36119 20.992 8.31934 21.0086Z" fill="#283841"/>
<path d="M25.7529 14.0842C25.4399 14.0657 25.1137 14.0565 24.7743 14.0565C23.9111 14.0565 23.1047 14.1208 22.3551 14.2492C21.6167 14.3685 20.9361 14.5475 20.3131 14.786C19.692 15.0155 19.1307 15.2953 18.6289 15.6257C18.1384 15.9469 17.7039 16.314 17.3253 16.7269C16.9561 17.1398 16.6447 17.5895 16.3912 18.0758C16.1471 18.5622 15.9675 19.076 15.8525 19.6175C15.8469 19.6437 15.8415 19.6699 15.8363 19.696C15.8314 19.7207 15.8266 19.7453 15.822 19.7699C22.5012 19.6329 24.1046 18.0059 25.7529 14.0842Z" fill="#283841"/>
<path d="M15.822 19.7699C15.7544 20.1309 15.72 20.4886 15.7188 20.8426C15.7268 21.2464 15.7855 21.6318 15.8951 21.9988C16.0141 22.3659 16.1839 22.7146 16.4045 23.045C16.6365 23.3662 16.9259 23.6598 17.2727 23.9259C17.6289 24.192 18.0539 24.4214 18.5477 24.6142C19.0435 24.7977 19.609 24.9399 20.2442 25.0408C20.6339 25.1076 21.0522 25.1542 21.4988 25.1804C22.857 21.2615 22.4895 19.6684 15.822 19.7699Z" fill="#283841"/>
<path d="M21.5474 25.1832C21.8223 25.1984 22.1079 25.206 22.4042 25.206C23.5206 25.206 24.5224 25.105 25.4097 24.9032C26.3043 24.7105 27.0936 24.4397 27.7776 24.091C28.4634 23.7332 29.0484 23.3202 29.5326 22.8522C30.0186 22.375 30.4083 21.8657 30.7016 21.3244C30.9969 20.7737 31.207 20.2048 31.3318 19.6175C31.3407 19.5757 31.3491 19.5341 31.357 19.4926C24.7856 19.6281 23.1877 21.2778 21.5474 25.1832Z" fill="#283841"/>
<path d="M31.3572 19.4927C24.806 19.5916 24.4542 17.9795 25.8022 14.0872C27.059 14.1655 28.101 14.3939 28.9282 14.7723C29.9714 15.2495 30.6902 15.9056 31.085 16.7407C31.4646 17.5435 31.5552 18.461 31.3572 19.4927Z" fill="#283841"/>
<path d="M132.051 24.793C132.571 24.793 132.994 24.3707 132.994 23.8497C132.994 23.3287 132.571 22.9063 132.051 22.9063C131.529 22.9063 131.107 23.3287 131.107 23.8497C131.107 24.3707 131.529 24.793 132.051 24.793Z" fill="#283841"/>
</g>
<defs>
<clipPath id="clip0_1_613">
<rect width="134.4" height="32" fill="white" transform="translate(0.348145)"/>
</clipPath>
</defs>
</svg>
