<svg width="186" height="32" viewBox="0 0 186 32" fill="none" xmlns="http://www.w3.org/2000/svg">
<g clip-path="url(#clip0_1_630)">
<path d="M48.2988 1.88811C46.471 1.00017 44.4188 0.502136 42.2502 0.502136C40.0817 0.502136 38.0294 1.00017 36.2017 1.88811H48.2988Z" fill="url(#paint0_linear_1_630)"/>
<path d="M34.7271 2.7197C34.8739 2.62458 35.0228 2.53215 35.1735 2.4425H49.3269C50.1316 2.9213 50.8837 3.47928 51.5725 4.10568H32.9279C33.0312 4.01173 33.1359 3.91932 33.2421 3.82848H19.3823C19.4494 3.77099 19.5172 3.71413 19.5854 3.65791H5.93359C6.17352 3.46516 6.41999 3.28024 6.67263 3.10352H20.3052C20.4893 2.97113 20.6767 2.84314 20.8673 2.7197H34.7271Z" fill="url(#paint1_linear_1_630)"/>
<path d="M53.5419 6.32321C53.1207 5.7327 52.6544 5.17663 52.148 4.66003H32.3523C32.263 4.75121 32.1748 4.84362 32.0879 4.93723H18.2282C18.1115 5.06302 17.9971 5.19098 17.8851 5.32105H4.19493C4.03607 5.50174 3.88184 5.68659 3.73242 5.87544H17.4318C17.388 5.93195 17.3446 5.98881 17.3017 6.04601H31.1613C31.0926 6.13754 31.025 6.22994 30.9585 6.32321H53.5419Z" fill="url(#paint2_linear_1_630)"/>
<path d="M30.4092 7.15483C30.466 7.06169 30.5239 6.9693 30.5828 6.87762H53.9173C54.2585 7.40833 54.5644 7.96381 54.8318 8.54078H29.6684C29.7114 8.44784 29.7555 8.35546 29.8005 8.26356H15.9409C15.9689 8.20652 15.9973 8.14969 16.026 8.09299H2.29785C2.39508 7.90572 2.49645 7.72082 2.60186 7.53863H16.3237C16.397 7.40937 16.4723 7.28144 16.5495 7.15483H30.4092Z" fill="url(#paint3_linear_1_630)"/>
<path d="M55.6369 10.7584C55.4839 10.1886 55.2955 9.63337 55.0742 9.09521H29.4262C29.3884 9.18711 29.3516 9.27949 29.3158 9.37236H15.456C15.407 9.49939 15.3597 9.62739 15.3144 9.75622H1.5695C1.50333 9.93925 1.44091 10.1241 1.38232 10.3106H15.1322C15.1149 10.3673 15.0979 10.4241 15.0814 10.4812H28.9411C28.9144 10.5731 28.8885 10.6656 28.8636 10.7584H55.6369Z" fill="url(#paint4_linear_1_630)"/>
<path d="M28.6677 11.59C28.6865 11.4972 28.7063 11.4048 28.7269 11.3127H55.7734C55.8954 11.8558 55.9854 12.4108 56.0415 12.9759H28.4589C28.4681 12.8832 28.4782 12.7909 28.4892 12.6987H14.6295C14.6363 12.6417 14.6435 12.5849 14.651 12.5281H0.882568C0.908627 12.3421 0.938376 12.1573 0.971742 11.9738H14.7357C14.758 11.8452 14.7821 11.7173 14.808 11.59H28.6677Z" fill="url(#paint5_linear_1_630)"/>
<path d="M56.1101 14.3619C56.1101 14.6412 56.1019 14.9184 56.0856 15.1935H28.4152C28.4097 15.1014 28.4052 15.0089 28.4016 14.9164H14.5419C14.5396 14.8596 14.5378 14.8027 14.5362 14.7458H0.750764C0.748955 14.6536 0.748047 14.5612 0.748047 14.4686C0.748047 14.376 0.748955 14.2835 0.750764 14.1913H14.532C14.5336 14.063 14.5368 13.9351 14.5419 13.8076H28.4016C28.4052 13.7149 28.4097 13.6225 28.4152 13.5303H56.0856C56.1019 13.8055 56.1101 14.0828 56.1101 14.3619Z" fill="url(#paint6_linear_1_630)"/>
<path d="M56.0415 15.7479C55.9854 16.3129 55.8954 16.8681 55.7734 17.4111H28.7269C28.7063 17.319 28.6865 17.2266 28.6677 17.1339H14.808C14.7964 17.0771 14.7853 17.0203 14.7745 16.9633H0.971742C0.938376 16.7797 0.908627 16.595 0.882568 16.4089H14.6808C14.662 16.2816 14.6449 16.1536 14.6295 16.0251H28.4892C28.4782 15.933 28.4681 15.8406 28.4589 15.7479H56.0415Z" fill="url(#paint7_linear_1_630)"/>
<path d="M29.3158 19.3514C29.3516 19.4443 29.3884 19.5367 29.4262 19.6286H55.0742C55.2955 19.0904 55.4839 18.5352 55.6369 17.9655H28.8636C28.8885 18.0583 28.9144 18.1506 28.9411 18.2427H15.0814C15.1189 18.3714 15.1581 18.4993 15.1992 18.6265H1.38232C1.44091 18.813 1.50333 18.9978 1.5695 19.1808H15.3914C15.4126 19.2379 15.4342 19.2948 15.456 19.3514H29.3158Z" fill="url(#paint8_linear_1_630)"/>
<path d="M54.8318 20.183C54.5644 20.76 54.2585 21.3155 53.9173 21.8461H30.5828C30.5239 21.7545 30.466 21.6621 30.4092 21.569H16.5495C16.515 21.5124 16.4808 21.4555 16.4471 21.3984H2.60186C2.49645 21.2162 2.39508 21.0313 2.29785 20.844H16.1367C16.0695 20.7172 16.0042 20.5893 15.9409 20.4602H29.8005C29.7555 20.3684 29.7114 20.276 29.6684 20.183H54.8318Z" fill="url(#paint9_linear_1_630)"/>
<path d="M32.0879 23.7865C32.1748 23.8801 32.263 23.9725 32.3523 24.0637H52.148C52.6544 23.5471 53.1207 22.991 53.5419 22.4005H30.9585C31.025 22.4937 31.0926 22.5862 31.1613 22.6777H17.3017C17.399 22.8074 17.4987 22.9354 17.6006 23.0615H3.73242C3.88184 23.2503 4.03607 23.4352 4.19493 23.6159H18.0726C18.124 23.6732 18.1759 23.73 18.2282 23.7865H32.0879Z" fill="url(#paint10_linear_1_630)"/>
<path d="M51.5725 24.618C50.8837 25.2445 50.1316 25.8025 49.3269 26.2812H35.1735C35.0228 26.1916 34.8739 26.0992 34.7271 26.0041H20.8673C20.7809 25.9481 20.6952 25.8912 20.6102 25.8335H6.67263C6.41999 25.6567 6.17352 25.4718 5.93359 25.2791H19.8509C19.6919 25.1545 19.5356 25.0265 19.3823 24.8953H33.2421C33.1359 24.8044 33.0312 24.712 32.9279 24.618H51.5725Z" fill="url(#paint11_linear_1_630)"/>
<path d="M36.2017 26.8357C38.0294 27.7236 40.0817 28.2216 42.2502 28.2216C44.4188 28.2216 46.471 27.7236 48.2988 26.8357H36.2017Z" fill="url(#paint12_linear_1_630)"/>
<path d="M19.3472 1.44035C17.8685 0.902267 16.2723 0.608765 14.6076 0.608765C12.9428 0.608765 11.3467 0.902267 9.86792 1.44035H19.3472Z" fill="url(#paint13_linear_1_630)"/>
<path d="M9.86792 27.4967C11.3467 28.0348 12.9428 28.3283 14.6076 28.3283C16.2723 28.3283 17.8685 28.0348 19.3472 27.4967H9.86792Z" fill="url(#paint14_linear_1_630)"/>
<path d="M28.3904 0.502136C30.3218 0.502136 32.1609 0.897195 33.8314 1.61091H22.9495C24.6199 0.897195 26.459 0.502136 28.3904 0.502136Z" fill="url(#paint15_linear_1_630)"/>
<path d="M28.3904 28.2217C26.459 28.2217 24.6199 27.8266 22.9495 27.1129H33.8314C32.1609 27.8266 30.3218 28.2217 28.3904 28.2217Z" fill="url(#paint16_linear_1_630)"/>
<path d="M181.3 31.4254V26.4946H182.024V31.4254H181.3ZM184.095 31.4254L181.756 29.0071V28.9275L184.124 26.4946H185.029L182.415 29.1809L182.487 28.7537L185.072 31.4254H184.095Z" fill="#7D919C"/>
<path d="M176.81 31.4254V26.4946H178.62C178.958 26.4946 179.252 26.567 179.503 26.7118C179.759 26.8518 179.957 27.0425 180.097 27.2838C180.237 27.5252 180.307 27.7955 180.307 28.0948C180.307 28.394 180.237 28.6644 180.097 28.9057C179.957 29.1471 179.759 29.3378 179.503 29.4777C179.252 29.6177 178.958 29.6877 178.62 29.6877H177.404V29.0071H178.497C178.815 29.0071 179.071 28.9275 179.265 28.7682C179.457 28.6041 179.554 28.3796 179.554 28.0948C179.554 27.7907 179.457 27.5614 179.265 27.4069C179.071 27.2525 178.815 27.1753 178.497 27.1753H177.396L177.534 27.0087V31.4254H176.81ZM179.561 31.4254L178.41 29.3764H179.206L180.358 31.4254H179.561Z" fill="#7D919C"/>
<path d="M170.875 28.9636C170.875 28.5968 170.938 28.2589 171.064 27.95C171.194 27.6411 171.375 27.3732 171.606 27.1462C171.838 26.9194 172.109 26.7432 172.418 26.6177C172.731 26.4922 173.071 26.4294 173.438 26.4294C173.8 26.4294 174.136 26.4922 174.445 26.6177C174.754 26.7432 175.021 26.9194 175.249 27.1462C175.48 27.3732 175.659 27.6411 175.784 27.95C175.915 28.2589 175.98 28.5968 175.98 28.9636C175.98 29.3257 175.915 29.6612 175.784 29.9701C175.659 30.279 175.48 30.5493 175.249 30.781C175.021 31.0079 174.754 31.1841 174.445 31.3096C174.136 31.4351 173.8 31.4978 173.438 31.4978C173.071 31.4978 172.731 31.4351 172.418 31.3096C172.109 31.1841 171.838 31.0079 171.606 30.781C171.375 30.5493 171.194 30.279 171.064 29.9701C170.938 29.6612 170.875 29.3257 170.875 28.9636ZM171.614 28.9636C171.614 29.3161 171.693 29.6322 171.853 29.9122C172.012 30.1873 172.229 30.4045 172.504 30.5638C172.779 30.7231 173.091 30.8027 173.438 30.8027C173.786 30.8027 174.095 30.7231 174.365 30.5638C174.635 30.4045 174.848 30.1873 175.003 29.9122C175.162 29.6322 175.241 29.3161 175.241 28.9636C175.241 28.6064 175.162 28.2902 175.003 28.0151C174.848 27.74 174.635 27.5228 174.365 27.3635C174.095 27.2042 173.786 27.1245 173.438 27.1245C173.091 27.1245 172.779 27.2042 172.504 27.3635C172.229 27.5228 172.012 27.74 171.853 28.0151C171.693 28.2902 171.614 28.6064 171.614 28.9636Z" fill="#7D919C"/>
<path d="M168.469 31.4254L167.115 27.0304L166.949 26.4946H167.658L169.041 31.0634L168.723 30.991L169.924 26.4946H170.656L169.316 31.4254H168.469ZM165.29 31.4254L163.951 26.4946H164.682L165.884 30.991L165.566 31.0634L166.949 26.4946H167.658L167.491 27.0304L166.138 31.4254H165.29Z" fill="#7D919C"/>
<path d="M161.398 31.4254V27.0377H162.122V31.4254H161.398ZM159.855 27.1753V26.4946H163.737V27.1753H159.855Z" fill="#7D919C"/>
<path d="M156.968 29.2895V28.6089H158.959V29.2895H156.968ZM156.947 27.1753L157.113 26.9435V30.8534L156.91 30.7376H159.386V31.4254H156.389V26.4946H159.386V27.1753H156.947Z" fill="#7D919C"/>
<path d="M154.541 31.4254L151.355 27.2911L151.761 27.1753V31.4254H151.037V26.4946H151.652L154.729 30.4842H154.433V26.4946H155.156V31.4254H154.541Z" fill="#7D919C"/>
<path d="M118.301 8.04688V21.3717H122.279V8.04688H118.301Z" fill="#283841"/>
<path d="M118.573 2.13379C118.155 2.56977 117.946 3.14199 117.946 3.85046C117.946 4.54081 118.155 5.10394 118.573 5.53992C119.009 5.95776 119.581 6.16666 120.29 6.16666C120.998 6.16666 121.562 5.95776 121.979 5.53992C122.415 5.10394 122.633 4.54081 122.633 3.85046C122.633 3.14199 122.415 2.56977 121.979 2.13379C121.562 1.69778 120.998 1.4798 120.29 1.4798C119.581 1.4798 119.009 1.69778 118.573 2.13379Z" fill="#283841"/>
<path d="M140.844 21.1537C141.789 21.5716 142.797 21.7805 143.869 21.7805C144.886 21.7805 145.794 21.5988 146.593 21.2355C147.393 20.8722 148.019 20.3635 148.474 19.7096C148.927 19.0374 149.155 18.2653 149.155 17.3933C149.155 16.2671 148.792 15.3678 148.065 14.6957C147.357 14.0235 146.175 13.4877 144.522 13.088C143.542 12.8518 142.888 12.6429 142.561 12.4612C142.233 12.2796 142.07 12.0525 142.07 11.78C142.07 11.4893 142.206 11.2714 142.479 11.1261C142.751 10.9807 143.078 10.908 143.459 10.908C144.168 10.908 144.804 11.0352 145.367 11.2895C145.93 11.5439 146.412 11.8527 146.811 12.216L149.264 10.1178C148.682 9.42748 147.946 8.84619 147.057 8.37384C146.166 7.88334 145.085 7.63812 143.814 7.63812C142.742 7.63812 141.816 7.83791 141.034 8.23764C140.253 8.63729 139.654 9.17315 139.236 9.84529C138.818 10.4993 138.609 11.2259 138.609 12.0253C138.609 13.1334 138.945 14.0235 139.617 14.6957C140.307 15.3496 141.352 15.8493 142.751 16.1944C143.514 16.3942 144.095 16.5668 144.495 16.7121C144.895 16.8575 145.167 17.0028 145.313 17.1481C145.458 17.2934 145.53 17.4751 145.53 17.6931C145.53 17.9474 145.403 18.1654 145.149 18.3471C144.913 18.5105 144.595 18.5923 144.195 18.5923C143.523 18.5923 142.906 18.4561 142.342 18.1836C141.779 17.9111 141.189 17.457 140.571 16.8211L138.31 19.001C139.073 20.0184 139.917 20.7359 140.844 21.1537Z" fill="#283841"/>
<path d="M164.632 21.3717V8.04688H167.574L168.045 9.56854C168.218 9.42002 168.397 9.27609 168.583 9.13682C169.164 8.70079 169.8 8.35568 170.491 8.10134C171.181 7.84701 171.899 7.71985 172.643 7.71985C173.533 7.71985 174.242 7.87428 174.769 8.18308C175.314 8.47373 175.723 8.88249 175.995 9.40931C176.036 9.4834 176.075 9.55901 176.111 9.63602C176.31 9.4635 176.517 9.2971 176.731 9.13682C177.311 8.70079 177.938 8.35568 178.611 8.10134C179.301 7.84701 180.018 7.71985 180.763 7.71985C181.654 7.71985 182.371 7.87428 182.916 8.18308C183.461 8.47373 183.87 8.88249 184.142 9.40931C184.415 9.93613 184.605 10.5356 184.715 11.2078C184.824 11.8618 184.878 12.5429 184.878 13.2515V21.3717H180.873V13.4695C180.873 12.7065 180.736 12.2069 180.463 11.9707C180.21 11.7164 179.883 11.5892 179.483 11.5892C178.901 11.5892 178.338 11.7619 177.794 12.107C177.411 12.3363 177.055 12.6147 176.727 12.9424C176.729 13.0449 176.731 13.1479 176.731 13.2515V21.3717H172.752V13.4695C172.752 12.7065 172.616 12.2069 172.343 11.9707C172.071 11.7164 171.735 11.5892 171.335 11.5892C170.772 11.5892 170.218 11.7619 169.673 12.107C169.292 12.3355 168.938 12.6128 168.61 12.9389V21.3717H164.632Z" fill="#283841"/>
<path d="M154.857 21.6988C153.876 21.6988 153.077 21.5534 152.459 21.2627C151.859 20.9721 151.387 20.5724 151.042 20.0638C150.715 19.537 150.488 18.9466 150.361 18.2926C150.252 17.6204 150.198 16.9119 150.198 16.1671V8.04688H154.176V15.9491C154.176 16.694 154.33 17.1935 154.639 17.4478C154.948 17.684 155.329 17.8021 155.784 17.8021C156.183 17.8021 156.574 17.7385 156.955 17.6113C157.336 17.466 157.709 17.2661 158.072 17.0119C158.264 16.868 158.446 16.709 158.618 16.5347V8.04688H162.623V21.3717H159.653L159.185 19.8577C159.02 20.0016 158.849 20.1429 158.672 20.2817C158.108 20.7178 157.51 21.0629 156.874 21.3173C156.238 21.5716 155.565 21.6988 154.857 21.6988Z" fill="#283841"/>
<path fill-rule="evenodd" clip-rule="evenodd" d="M131.705 21.6988C130.524 21.6988 129.498 21.4353 128.625 20.9085C128.574 20.8755 128.523 20.8417 128.473 20.8069C128.423 20.7725 128.374 20.7373 128.326 20.7013V26.5491H124.347V8.04688H127.318L127.711 9.37383C128.002 9.0635 128.326 8.79373 128.68 8.56458C129.552 8.00145 130.569 7.71985 131.732 7.71985C132.949 7.71985 134.012 8.01961 134.92 8.61912C135.847 9.20041 136.564 10.0179 137.073 11.0715C137.6 12.1251 137.863 13.3423 137.863 14.7229C137.863 16.0853 137.6 17.2934 137.073 18.347C136.546 19.4007 135.819 20.2273 134.893 20.8268C133.967 21.4081 132.904 21.6988 131.705 21.6988ZM130.969 17.9656C131.786 17.9656 132.458 17.6659 132.986 17.0664C133.53 16.4487 133.803 15.6676 133.803 14.7229C133.803 13.7601 133.53 12.979 132.986 12.3795C132.458 11.7619 131.786 11.453 130.969 11.453C130.17 11.453 129.498 11.7619 128.952 12.3795C128.408 12.979 128.135 13.751 128.135 14.6957C128.135 15.6585 128.408 16.4487 128.952 17.0664C129.498 17.6659 130.17 17.9656 130.969 17.9656Z" fill="#283841"/>
<path fill-rule="evenodd" clip-rule="evenodd" d="M109.976 21.6988C108.595 21.6988 107.377 21.4081 106.324 20.8268C105.27 20.2273 104.453 19.4007 103.871 18.347C103.291 17.2934 103 16.0853 103 14.7229C103 13.3423 103.291 12.1251 103.871 11.0715C104.453 10.0179 105.27 9.20041 106.324 8.61912C107.377 8.01961 108.595 7.71985 109.976 7.71985C111.374 7.71985 112.6 8.01961 113.654 8.61912C114.708 9.20041 115.525 10.0179 116.107 11.0715C116.706 12.1251 117.006 13.3423 117.006 14.7229C117.006 16.0853 116.706 17.2934 116.107 18.347C115.525 19.4007 114.708 20.2273 113.654 20.8268C112.6 21.4081 111.374 21.6988 109.976 21.6988ZM109.976 17.8293C110.865 17.8293 111.583 17.5477 112.128 16.9846C112.692 16.4033 112.973 15.6494 112.973 14.7229C112.973 13.7783 112.692 13.0153 112.128 12.4339C111.583 11.8526 110.865 11.562 109.976 11.562C109.121 11.562 108.413 11.8526 107.85 12.4339C107.305 12.9971 107.032 13.751 107.032 14.6957C107.032 15.6403 107.305 16.4033 107.85 16.9846C108.413 17.5477 109.121 17.8293 109.976 17.8293Z" fill="#283841"/>
<path fill-rule="evenodd" clip-rule="evenodd" d="M92.8263 26.4946C93.5714 26.7126 94.2976 26.8216 95.0065 26.8216C96.4416 26.8216 97.6674 26.54 98.6851 25.9768C99.7202 25.4137 100.51 24.5781 101.056 23.4699C101.601 22.3618 101.873 21.0266 101.873 19.4643V8.04687H98.9028L98.4632 9.50761C98.1376 9.1323 97.7662 8.80889 97.3495 8.53738C96.514 7.99234 95.5421 7.71985 94.434 7.71985C93.2534 7.71985 92.1995 8.00145 91.2729 8.56458C90.3463 9.10955 89.6201 9.87254 89.0935 10.8535C88.5842 11.8163 88.3303 12.9336 88.3303 14.2052C88.3303 15.4586 88.5933 16.5758 89.1206 17.5569C89.6653 18.5378 90.3922 19.3008 91.3001 19.8458C92.2267 20.3908 93.2896 20.6632 94.4882 20.6632C95.6145 20.6632 96.587 20.4089 97.4044 19.9003C97.5755 19.7921 97.739 19.6748 97.8948 19.5483V20.309C97.8948 21.3808 97.6312 22.1802 97.1046 22.7069C96.5773 23.252 95.8962 23.5244 95.0608 23.5244C94.3338 23.5244 93.7348 23.37 93.2625 23.0612C92.8082 22.7523 92.354 22.2437 91.8997 21.5352L89.0385 23.0067L89.2569 23.4699C89.6743 24.2874 90.1919 24.9414 90.8096 25.4318C91.4274 25.9406 92.0994 26.2948 92.8263 26.4946ZM97.2952 16.3306C96.7686 16.8938 96.0868 17.1754 95.2514 17.1754C94.4159 17.1754 93.7258 16.8938 93.1804 16.3306C92.6538 15.7675 92.3901 15.059 92.3901 14.2052C92.3901 13.315 92.6538 12.5884 93.1804 12.0252C93.7258 11.462 94.4159 11.1805 95.2514 11.1805C96.0868 11.1805 96.7686 11.462 97.2952 12.0252C97.8399 12.5884 98.1126 13.315 98.1126 14.2052C98.1126 15.059 97.8399 15.7675 97.2952 16.3306Z" fill="#283841"/>
<path fill-rule="evenodd" clip-rule="evenodd" d="M81.008 21.6988C79.6278 21.6988 78.4104 21.4081 77.3565 20.8268C76.3033 20.2273 75.4859 19.4007 74.9043 18.347C74.3228 17.2934 74.032 16.0853 74.032 14.7229C74.032 13.3423 74.3228 12.1251 74.9043 11.0715C75.4859 10.0179 76.3033 9.20041 77.3565 8.61912C78.4104 8.01961 79.6278 7.71985 81.008 7.71985C82.4069 7.71985 83.6334 8.01961 84.6866 8.61912C85.7405 9.20041 86.5579 10.0179 87.1395 11.0715C87.7384 12.1251 88.0382 13.3423 88.0382 14.7229C88.0382 16.0853 87.7384 17.2934 87.1395 18.347C86.5579 19.4007 85.7405 20.2273 84.6866 20.8268C83.6334 21.4081 82.4069 21.6988 81.008 21.6988ZM81.008 17.8293C81.8984 17.8293 82.6156 17.5477 83.161 16.9846C83.7238 16.4033 84.0055 15.6494 84.0055 14.7229C84.0055 13.7783 83.7238 13.0153 83.161 12.4339C82.6156 11.8526 81.8984 11.562 81.008 11.562C80.1544 11.562 79.4455 11.8526 78.8828 12.4339C78.3374 12.9971 78.0654 13.751 78.0654 14.6957C78.0654 15.6403 78.3374 16.4033 78.8828 16.9846C79.4455 17.5477 80.1544 17.8293 81.008 17.8293Z" fill="#283841"/>
<path d="M62.499 21.3718H73.7803V17.5296H66.4774V2.815H62.499V21.3718Z" fill="#283841"/>
</g>
<defs>
<linearGradient id="paint0_linear_1_630" x1="0.747816" y1="12.7269" x2="54.647" y2="12.7269" gradientUnits="userSpaceOnUse">
<stop stop-color="#0046F9"/>
<stop offset="0.197917" stop-color="#16DBF6"/>
<stop offset="0.401042" stop-color="#FFE713"/>
<stop offset="0.604167" stop-color="#FF7917"/>
<stop offset="0.802083" stop-color="#FB0000"/>
<stop offset="1" stop-color="#B30000"/>
</linearGradient>
<linearGradient id="paint1_linear_1_630" x1="0.747792" y1="12.7269" x2="54.647" y2="12.7269" gradientUnits="userSpaceOnUse">
<stop stop-color="#0046F9"/>
<stop offset="0.197917" stop-color="#16DBF6"/>
<stop offset="0.401042" stop-color="#FFE713"/>
<stop offset="0.604167" stop-color="#FF7917"/>
<stop offset="0.802083" stop-color="#FB0000"/>
<stop offset="1" stop-color="#B30000"/>
</linearGradient>
<linearGradient id="paint2_linear_1_630" x1="0.747774" y1="12.7268" x2="54.647" y2="12.7268" gradientUnits="userSpaceOnUse">
<stop stop-color="#0046F9"/>
<stop offset="0.197917" stop-color="#16DBF6"/>
<stop offset="0.401042" stop-color="#FFE713"/>
<stop offset="0.604167" stop-color="#FF7917"/>
<stop offset="0.802083" stop-color="#FB0000"/>
<stop offset="1" stop-color="#B30000"/>
</linearGradient>
<linearGradient id="paint3_linear_1_630" x1="0.747674" y1="12.7269" x2="54.6469" y2="12.7269" gradientUnits="userSpaceOnUse">
<stop stop-color="#0046F9"/>
<stop offset="0.197917" stop-color="#16DBF6"/>
<stop offset="0.401042" stop-color="#FFE713"/>
<stop offset="0.604167" stop-color="#FF7917"/>
<stop offset="0.802083" stop-color="#FB0000"/>
<stop offset="1" stop-color="#B30000"/>
</linearGradient>
<linearGradient id="paint4_linear_1_630" x1="0.747822" y1="12.7269" x2="54.647" y2="12.7269" gradientUnits="userSpaceOnUse">
<stop stop-color="#0046F9"/>
<stop offset="0.197917" stop-color="#16DBF6"/>
<stop offset="0.401042" stop-color="#FFE713"/>
<stop offset="0.604167" stop-color="#FF7917"/>
<stop offset="0.802083" stop-color="#FB0000"/>
<stop offset="1" stop-color="#B30000"/>
</linearGradient>
<linearGradient id="paint5_linear_1_630" x1="0.747817" y1="12.7269" x2="54.647" y2="12.7269" gradientUnits="userSpaceOnUse">
<stop stop-color="#0046F9"/>
<stop offset="0.197917" stop-color="#16DBF6"/>
<stop offset="0.401042" stop-color="#FFE713"/>
<stop offset="0.604167" stop-color="#FF7917"/>
<stop offset="0.802083" stop-color="#FB0000"/>
<stop offset="1" stop-color="#B30000"/>
</linearGradient>
<linearGradient id="paint6_linear_1_630" x1="0.748046" y1="12.7269" x2="54.6472" y2="12.7269" gradientUnits="userSpaceOnUse">
<stop stop-color="#0046F9"/>
<stop offset="0.197917" stop-color="#16DBF6"/>
<stop offset="0.401042" stop-color="#FFE713"/>
<stop offset="0.604167" stop-color="#FF7917"/>
<stop offset="0.802083" stop-color="#FB0000"/>
<stop offset="1" stop-color="#B30000"/>
</linearGradient>
<linearGradient id="paint7_linear_1_630" x1="0.747817" y1="12.7269" x2="54.647" y2="12.7269" gradientUnits="userSpaceOnUse">
<stop stop-color="#0046F9"/>
<stop offset="0.197917" stop-color="#16DBF6"/>
<stop offset="0.401042" stop-color="#FFE713"/>
<stop offset="0.604167" stop-color="#FF7917"/>
<stop offset="0.802083" stop-color="#FB0000"/>
<stop offset="1" stop-color="#B30000"/>
</linearGradient>
<linearGradient id="paint8_linear_1_630" x1="0.747822" y1="12.7269" x2="54.647" y2="12.7269" gradientUnits="userSpaceOnUse">
<stop stop-color="#0046F9"/>
<stop offset="0.197917" stop-color="#16DBF6"/>
<stop offset="0.401042" stop-color="#FFE713"/>
<stop offset="0.604167" stop-color="#FF7917"/>
<stop offset="0.802083" stop-color="#FB0000"/>
<stop offset="1" stop-color="#B30000"/>
</linearGradient>
<linearGradient id="paint9_linear_1_630" x1="0.747674" y1="12.7269" x2="54.6469" y2="12.7269" gradientUnits="userSpaceOnUse">
<stop stop-color="#0046F9"/>
<stop offset="0.197917" stop-color="#16DBF6"/>
<stop offset="0.401042" stop-color="#FFE713"/>
<stop offset="0.604167" stop-color="#FF7917"/>
<stop offset="0.802083" stop-color="#FB0000"/>
<stop offset="1" stop-color="#B30000"/>
</linearGradient>
<linearGradient id="paint10_linear_1_630" x1="0.747774" y1="12.7269" x2="54.647" y2="12.7269" gradientUnits="userSpaceOnUse">
<stop stop-color="#0046F9"/>
<stop offset="0.197917" stop-color="#16DBF6"/>
<stop offset="0.401042" stop-color="#FFE713"/>
<stop offset="0.604167" stop-color="#FF7917"/>
<stop offset="0.802083" stop-color="#FB0000"/>
<stop offset="1" stop-color="#B30000"/>
</linearGradient>
<linearGradient id="paint11_linear_1_630" x1="0.747792" y1="12.7268" x2="54.647" y2="12.7268" gradientUnits="userSpaceOnUse">
<stop stop-color="#0046F9"/>
<stop offset="0.197917" stop-color="#16DBF6"/>
<stop offset="0.401042" stop-color="#FFE713"/>
<stop offset="0.604167" stop-color="#FF7917"/>
<stop offset="0.802083" stop-color="#FB0000"/>
<stop offset="1" stop-color="#B30000"/>
</linearGradient>
<linearGradient id="paint12_linear_1_630" x1="0.747816" y1="12.7269" x2="54.647" y2="12.7269" gradientUnits="userSpaceOnUse">
<stop stop-color="#0046F9"/>
<stop offset="0.197917" stop-color="#16DBF6"/>
<stop offset="0.401042" stop-color="#FFE713"/>
<stop offset="0.604167" stop-color="#FF7917"/>
<stop offset="0.802083" stop-color="#FB0000"/>
<stop offset="1" stop-color="#B30000"/>
</linearGradient>
<linearGradient id="paint13_linear_1_630" x1="0.747849" y1="12.7269" x2="54.6471" y2="12.7269" gradientUnits="userSpaceOnUse">
<stop stop-color="#0046F9"/>
<stop offset="0.197917" stop-color="#16DBF6"/>
<stop offset="0.401042" stop-color="#FFE713"/>
<stop offset="0.604167" stop-color="#FF7917"/>
<stop offset="0.802083" stop-color="#FB0000"/>
<stop offset="1" stop-color="#B30000"/>
</linearGradient>
<linearGradient id="paint14_linear_1_630" x1="0.747849" y1="12.7269" x2="54.6471" y2="12.7269" gradientUnits="userSpaceOnUse">
<stop stop-color="#0046F9"/>
<stop offset="0.197917" stop-color="#16DBF6"/>
<stop offset="0.401042" stop-color="#FFE713"/>
<stop offset="0.604167" stop-color="#FF7917"/>
<stop offset="0.802083" stop-color="#FB0000"/>
<stop offset="1" stop-color="#B30000"/>
</linearGradient>
<linearGradient id="paint15_linear_1_630" x1="0.747792" y1="12.7269" x2="54.647" y2="12.7269" gradientUnits="userSpaceOnUse">
<stop stop-color="#0046F9"/>
<stop offset="0.197917" stop-color="#16DBF6"/>
<stop offset="0.401042" stop-color="#FFE713"/>
<stop offset="0.604167" stop-color="#FF7917"/>
<stop offset="0.802083" stop-color="#FB0000"/>
<stop offset="1" stop-color="#B30000"/>
</linearGradient>
<linearGradient id="paint16_linear_1_630" x1="0.747792" y1="12.7269" x2="54.647" y2="12.7269" gradientUnits="userSpaceOnUse">
<stop stop-color="#0046F9"/>
<stop offset="0.197917" stop-color="#16DBF6"/>
<stop offset="0.401042" stop-color="#FFE713"/>
<stop offset="0.604167" stop-color="#FF7917"/>
<stop offset="0.802083" stop-color="#FB0000"/>
<stop offset="1" stop-color="#B30000"/>
</linearGradient>
<clipPath id="clip0_1_630">
<rect width="184.348" height="32" fill="white" transform="translate(0.748047)"/>
</clipPath>
</defs>
</svg>
