<svg width="169" height="32" viewBox="0 0 169 32" fill="none" xmlns="http://www.w3.org/2000/svg">
<g clip-path="url(#clip0_1_665)">
<path d="M43.7315 25.662C43.7114 25.177 43.3801 24.7632 42.9074 24.6321C39.559 23.7024 37.5434 22.4046 36.4421 21.4794C36.0647 21.1623 35.7261 20.8327 35.4359 20.5003L35.0654 20.0759L35.3754 19.6066L40.3094 12.1346C40.5847 11.7177 40.5509 11.1821 40.2253 10.8021C40.0098 10.5505 39.6949 10.4063 39.3613 10.4063C39.2051 10.4063 39.053 10.4378 38.9087 10.5C36.2089 11.6652 32.9007 12.2814 29.3414 12.2816C28.7223 12.2816 28.0893 12.2625 27.4606 12.2252L26.8692 12.19L26.7637 11.614C26.207 8.5696 24.7818 6.25403 22.5279 4.73154C20.2289 3.1787 17.0045 2.39138 12.9444 2.39138C10.6146 2.39138 8.48606 2.93396 7.11084 3.38899L6.19606 3.69166L6.11952 2.74155C5.99584 1.20417 4.67494 0 3.11254 0C1.44926 0 0.0959473 1.33697 0.0959473 2.98015C0.0959473 3.97831 0.603112 4.90775 1.45266 5.46633L1.72151 5.6431L1.77751 5.95732L5.72962 28.0989C5.82521 28.634 6.29354 29.0224 6.8435 29.0224H8.3518C8.687 29.0224 9.00278 28.8769 9.21813 28.6232C9.43384 28.3693 9.52395 28.0369 9.46569 27.7108L8.41718 21.8361L8.32184 21.3017L8.80729 21.0481C9.38933 20.7441 12.4922 19.2277 16.4436 19.2277C17.0115 19.2277 17.5797 19.2596 18.1325 19.3223L18.6915 19.3859L18.7892 19.9333L19.7258 25.1809C19.9199 26.1411 20.6005 26.7465 21.1738 26.9929C21.6781 27.2103 26.2063 29.0909 31.8623 29.0909C36.0616 29.0909 39.6948 27.9685 42.9955 26.7556C43.4559 26.5863 43.7517 26.1467 43.7315 25.662Z" fill="#283841"/>
<path fill-rule="evenodd" clip-rule="evenodd" d="M13.7544 12.6521C18.0438 12.3713 23.4789 13.0531 27.3287 17.5076C27.6688 17.9011 27.4327 18.1017 27.7462 18.556V19.158L27.1823 19.5376C23.7224 14.523 18.3164 13.705 13.8468 13.9972C11.8747 14.1393 10.1418 14.5897 8.90019 15.0062C8.28019 15.2142 7.78565 15.4128 7.44848 15.5581C7.28 15.6308 7.15103 15.6901 7.06561 15.7304C7.0229 15.7507 6.9911 15.7661 6.97071 15.7761C6.96051 15.7811 6.95317 15.7848 6.94874 15.787L6.94404 15.7894C6.94404 15.7894 6.94428 15.7893 6.63092 15.1905C6.31756 14.5917 6.31787 14.5915 6.31787 14.5915L6.31923 14.5909L6.32203 14.5894L6.331 14.5849C6.33847 14.5812 6.3489 14.576 6.36223 14.5694C6.38891 14.5563 6.4272 14.5377 6.47662 14.5144C6.57544 14.4677 6.71881 14.4019 6.90268 14.3226C7.27027 14.1641 7.80063 13.9514 8.46135 13.7297C9.78063 13.2871 11.6312 12.8048 13.7499 12.6525L13.7521 12.6523L13.7544 12.6521Z" fill="#283841"/>
<path fill-rule="evenodd" clip-rule="evenodd" d="M13.2589 7.74294C17.9078 7.60679 23.736 8.42352 26.7953 13.4882C27.1288 14.0402 26.6767 14.3164 26.9392 14.9736L27.0571 15.5472L26.4225 15.7947C24.0958 9.97094 18.359 8.94257 13.3012 9.09043C11.2733 9.16141 9.43895 9.59676 8.10717 10.0176C7.44259 10.2277 6.90713 10.4328 6.54005 10.5844C6.3566 10.6601 6.21549 10.7224 6.12166 10.765C6.07475 10.7863 6.03968 10.8026 6.01707 10.8133C6.00576 10.8187 5.99757 10.8226 5.99258 10.825L5.98749 10.8275C5.98749 10.8275 5.98725 10.8277 5.68329 10.2242C5.37932 9.62068 5.37964 9.62054 5.37964 9.62054L5.38105 9.61981L5.38401 9.61836L5.39363 9.6137C5.40167 9.60985 5.41297 9.60439 5.42743 9.59756C5.45635 9.58388 5.49796 9.56447 5.55165 9.5401C5.65899 9.4913 5.81471 9.42272 6.01381 9.34046C6.41182 9.17617 6.98435 8.95705 7.69139 8.73356C9.10252 8.28767 11.0654 7.81945 13.255 7.74301L13.2569 7.74294H13.2589Z" fill="#283841"/>
<path d="M4.17747 4.51716C4.67275 4.18152 4.99779 3.61827 4.99779 2.98015C4.99779 1.95144 4.15371 1.11755 3.11242 1.11755C2.07113 1.11755 1.22705 1.95144 1.22705 2.98015C1.22705 3.87587 1.86713 4.62407 2.72007 4.80232L6.84357 27.9046H8.35187L4.17747 4.51716Z" fill="white"/>
<path d="M6.1588 9.28123L5.44067 5.25777C5.44067 5.25777 8.88075 3.50861 12.9441 3.50861C18.2233 3.50861 24.4215 4.73121 25.6722 11.9364C25.6729 11.9406 25.6736 11.9447 25.6743 11.9489C22.4511 8.25338 17.3892 7.62203 13.2583 7.74298L13.2564 7.74305L13.2544 7.74312C11.0648 7.81949 9.10198 8.2877 7.69086 8.73367C7.06585 8.93112 6.54596 9.1253 6.1588 9.28123Z" fill="white"/>
<path d="M6.40161 10.6421L7.04751 14.2609C7.40436 14.1109 7.88269 13.9238 8.46087 13.7298C9.78014 13.2873 11.6307 12.8049 13.7495 12.6526L13.7516 12.6524L13.7539 12.6523C17.7454 12.391 22.7289 12.9632 26.504 16.6333C26.4375 16.2629 26.37 15.8862 26.302 15.5058C23.903 9.93687 18.2735 8.94516 13.3006 9.09047C11.2727 9.16145 9.43832 9.5968 8.10654 10.0177C7.44196 10.2277 6.90648 10.4329 6.5394 10.5844C6.49042 10.6047 6.44446 10.6239 6.40161 10.6421Z" fill="white"/>
<path d="M26.9753 19.2467C23.5095 14.4914 18.2279 13.7108 13.8462 13.9973C11.8741 14.1394 10.1412 14.5898 8.89963 15.0064C8.27963 15.2144 7.78509 15.4129 7.44792 15.5583C7.39119 15.5827 7.3389 15.6057 7.29126 15.6269L8.09985 20.157C8.09985 20.157 18.6581 14.1264 27.6055 22.7689C27.4893 22.0897 27.265 20.8491 26.9886 19.3197C26.9842 19.2955 26.9798 19.2712 26.9753 19.2467Z" fill="white"/>
<path d="M21.6421 25.9753C21.6421 25.9753 26.1675 27.9731 31.8623 27.9731C35.6998 27.9731 39.0833 27.0005 42.601 25.7078C39.9875 24.9824 38.1041 24.0373 36.7651 23.1274C34.1489 23.7032 31.5018 23.8128 28.8608 23.5044C28.9178 23.8328 28.9745 24.1613 29.0307 24.4899L21.6421 25.9753Z" fill="white"/>
<path d="M28.6258 22.1609C30.894 22.4631 33.1603 22.4407 35.4022 22.0636C34.1397 20.9242 33.7399 20.0374 33.7399 20.0374L35.1827 17.8524C32.2678 18.5367 29.7828 18.4689 27.95 18.3771C28.1769 19.638 28.4034 20.8991 28.6258 22.1609Z" fill="white"/>
<path d="M27.7127 17.0592C29.8432 17.1702 32.7777 17.2954 36.2721 16.2026L39.3614 11.524C35.5804 13.1558 31.1387 13.6053 27.0452 13.3183C27.2648 14.5657 27.4884 15.8126 27.7127 17.0592Z" fill="white"/>
<path d="M103.696 14.0773V27.5085H105.633V14.0773H103.696Z" fill="#283841"/>
<path d="M103.644 11.747C103.87 11.9391 104.211 12.035 104.665 12.035C105.101 12.035 105.433 11.9391 105.66 11.747C105.886 11.5551 106 11.2758 106 10.9092C106 10.5426 105.886 10.2634 105.66 10.0714C105.433 9.87937 105.092 9.78345 104.638 9.78345C104.202 9.78345 103.87 9.87937 103.644 10.0714C103.417 10.2634 103.303 10.534 103.303 10.883C103.303 11.2496 103.417 11.5376 103.644 11.747Z" fill="#283841"/>
<path fill-rule="evenodd" clip-rule="evenodd" d="M108.445 31.2788L108.471 20.4657L108.445 14.0773H110.304L109.99 18.214H110.251C110.478 17.1667 110.81 16.3114 111.246 15.6481C111.683 14.9849 112.206 14.4962 112.817 14.182C113.446 13.8678 114.152 13.7108 114.938 13.7108C116.003 13.7108 116.936 13.9812 117.739 14.5224C118.56 15.046 119.197 15.8315 119.651 16.8788C120.104 17.926 120.331 19.2089 120.331 20.7274C120.331 22.246 120.104 23.5377 119.651 24.6023C119.214 25.667 118.603 26.4788 117.818 27.0373C117.032 27.5784 116.116 27.8489 115.069 27.8489C114.109 27.8489 113.297 27.6308 112.634 27.1943C111.971 26.758 111.438 26.1558 111.037 25.3878C110.653 24.6023 110.382 23.7121 110.225 22.7173H109.911C110.016 23.4504 110.103 24.1311 110.173 24.7595C110.243 25.3704 110.295 25.9377 110.33 26.4613C110.365 26.9849 110.382 27.4736 110.382 27.9275V31.2788H108.445ZM114.624 26.0685C115.409 26.0685 116.072 25.8591 116.614 25.4401C117.172 25.0038 117.6 24.3929 117.896 23.6075C118.211 22.8046 118.368 21.8358 118.368 20.7012C118.368 19.6365 118.228 18.7201 117.949 17.9522C117.67 17.1667 117.251 16.5645 116.692 16.1457C116.151 15.7092 115.47 15.4911 114.65 15.4911C113.934 15.4911 113.306 15.6569 112.765 15.9886C112.241 16.3028 111.805 16.7129 111.456 17.2191C111.124 17.7078 110.871 18.2314 110.696 18.79C110.522 19.3485 110.435 19.8721 110.435 20.3609V20.6489C110.435 20.9457 110.478 21.3296 110.566 21.8009C110.653 22.2547 110.792 22.726 110.984 23.2148C111.176 23.7035 111.43 24.166 111.744 24.6023C112.075 25.0387 112.477 25.3966 112.948 25.6758C113.437 25.9377 113.995 26.0685 114.624 26.0685Z" fill="#283841"/>
<path d="M125.429 27.5609C126.145 27.7529 126.939 27.8489 127.811 27.8489C128.929 27.8489 129.897 27.7006 130.718 27.4038C131.538 27.0897 132.175 26.6445 132.629 26.0685C133.083 25.4925 133.31 24.7944 133.31 23.974C133.31 23.2235 133.153 22.6126 132.838 22.1412C132.542 21.67 132.14 21.2948 131.634 21.0154C131.128 20.7362 130.561 20.5267 129.932 20.387C129.321 20.23 128.702 20.0904 128.073 19.9682C127.358 19.846 126.703 19.7064 126.11 19.5492C125.516 19.3922 125.045 19.1653 124.696 18.8685C124.347 18.5544 124.172 18.118 124.172 17.5595C124.172 16.8788 124.46 16.3464 125.036 15.9623C125.63 15.5784 126.406 15.3863 127.366 15.3863C128.082 15.3863 128.71 15.4998 129.251 15.7268C129.81 15.9537 130.238 16.3114 130.534 16.8001C130.849 17.2715 130.988 17.8824 130.953 18.6329L132.707 18.3187C132.742 17.2889 132.533 16.4337 132.079 15.7529C131.625 15.0721 130.997 14.566 130.194 14.2344C129.391 13.8853 128.483 13.7108 127.471 13.7108C126.424 13.7108 125.507 13.8766 124.722 14.2082C123.954 14.5398 123.361 15.0024 122.942 15.5958C122.523 16.1893 122.313 16.8874 122.313 17.6903C122.313 18.406 122.453 18.9908 122.732 19.4446C123.029 19.8983 123.422 20.2649 123.91 20.5442C124.417 20.806 124.984 21.0242 125.612 21.1988C126.241 21.3558 126.878 21.4955 127.523 21.6176C128.257 21.7573 128.92 21.9144 129.513 22.0889C130.107 22.246 130.569 22.4729 130.901 22.7696C131.25 23.0664 131.425 23.494 131.425 24.0526C131.425 24.6984 131.119 25.222 130.508 25.6235C129.897 26.0075 129.025 26.1995 127.89 26.1995C127.07 26.1995 126.345 26.086 125.717 25.8591C125.106 25.6147 124.643 25.2394 124.329 24.7333C124.015 24.2271 123.893 23.5463 123.963 22.6911L122.156 22.9268C122.104 23.782 122.209 24.5238 122.47 25.1521C122.732 25.7805 123.107 26.2954 123.596 26.6969C124.102 27.0809 124.713 27.3689 125.429 27.5609Z" fill="#283841"/>
<path d="M149.107 27.5085V21.1202L149.054 14.0773H150.913L150.494 19.9944H150.782C150.94 18.5631 151.201 17.3849 151.568 16.4598C151.952 15.5347 152.449 14.8452 153.06 14.3915C153.671 13.9377 154.404 13.7108 155.26 13.7108C156.167 13.7108 156.9 13.955 157.459 14.4438C158.017 14.9325 158.41 15.6481 158.637 16.5908C158.881 17.5158 158.96 18.6417 158.873 19.9682H159.161C159.283 18.5718 159.527 17.4111 159.894 16.486C160.26 15.5609 160.758 14.8714 161.386 14.4176C162.014 13.9464 162.791 13.7108 163.716 13.7108C164.397 13.7108 164.999 13.8416 165.523 14.1034C166.046 14.3653 166.483 14.7668 166.832 15.3078C167.181 15.8315 167.443 16.4948 167.617 17.2977C167.792 18.1006 167.879 19.0257 167.879 20.0729V27.5085H165.942V20.387C165.942 19.27 165.846 18.3537 165.654 17.638C165.479 16.9224 165.2 16.3987 164.816 16.0671C164.432 15.718 163.934 15.5435 163.324 15.5435C162.521 15.5435 161.831 15.8402 161.255 16.4337C160.697 17.027 160.26 17.8561 159.946 18.9209C159.649 19.9682 159.484 21.2161 159.449 22.6649V27.5085H157.537V20.3609C157.537 19.2788 157.441 18.3798 157.249 17.6642C157.057 16.9486 156.769 16.4162 156.385 16.0671C156.019 15.718 155.53 15.5435 154.919 15.5435C154.134 15.5435 153.453 15.8402 152.877 16.4337C152.318 17.0097 151.873 17.8388 151.542 18.9209C151.228 19.9856 151.053 21.2424 151.018 22.6911V27.5085H149.107Z" fill="#283841"/>
<path d="M139.806 27.8489C138.236 27.8489 137.075 27.2817 136.324 26.1472C135.591 25.0125 135.225 23.2671 135.225 20.9108V14.0773H137.188V20.8846C137.188 22.6823 137.424 24.0002 137.895 24.838C138.366 25.6584 139.143 26.0685 140.225 26.0685C140.871 26.0685 141.438 25.9202 141.927 25.6235C142.416 25.3093 142.835 24.8555 143.184 24.262C143.533 23.6686 143.804 22.9181 143.996 22.0104C144.188 21.1027 144.292 20.0468 144.31 18.8424V14.0773H146.247V20.8322L146.273 27.5085H144.441L144.86 22.089H144.572C144.397 23.4155 144.1 24.5064 143.681 25.3617C143.28 26.1995 142.756 26.8279 142.11 27.2467C141.482 27.6482 140.714 27.8489 139.806 27.8489Z" fill="#283841"/>
<path fill-rule="evenodd" clip-rule="evenodd" d="M94.8938 27.8751C93.5847 27.8751 92.4239 27.6046 91.4116 27.0635C90.3992 26.5224 89.605 25.7195 89.029 24.6548C88.453 23.5901 88.165 22.2635 88.165 20.6751C88.165 19.0519 88.4618 17.7079 89.0552 16.6432C89.6487 15.5784 90.4516 14.7842 91.4639 14.2606C92.4763 13.737 93.6196 13.4752 94.8938 13.4752C96.1854 13.4752 97.3374 13.7457 98.3498 14.2868C99.3621 14.8279 100.156 15.6308 100.732 16.6955C101.308 17.7603 101.596 19.0954 101.596 20.7013C101.596 22.3246 101.3 23.6686 100.706 24.7333C100.13 25.7981 99.3272 26.5923 98.2974 27.1159C97.285 27.622 96.1505 27.8751 94.8938 27.8751ZM94.9723 25.3355C95.6705 25.3355 96.2552 25.161 96.7265 24.8119C97.2152 24.4627 97.5905 23.9566 97.8523 23.2933C98.1141 22.6126 98.245 21.801 98.245 20.8584C98.245 19.8635 98.1054 19.017 97.8261 18.3187C97.5643 17.6206 97.1716 17.0795 96.6479 16.6955C96.1418 16.3115 95.5309 16.1195 94.8152 16.1195C94.117 16.1195 93.5236 16.3028 93.0349 16.6693C92.5461 17.0184 92.1709 17.5333 91.909 18.2141C91.6472 18.8773 91.5163 19.6803 91.5163 20.6228C91.5163 22.1064 91.8218 23.2672 92.4327 24.105C93.0436 24.9253 93.8901 25.3355 94.9723 25.3355Z" fill="#283841"/>
<path fill-rule="evenodd" clip-rule="evenodd" d="M76.5897 31.3834C77.4973 31.6279 78.7104 31.75 80.229 31.75C81.922 31.75 83.3184 31.5929 84.4181 31.2788C85.5177 30.982 86.3381 30.5194 86.8791 29.8911C87.4377 29.2628 87.717 28.4599 87.717 27.4824C87.717 26.6097 87.525 25.9377 87.141 25.4663C86.7744 24.9776 86.3119 24.6286 85.7533 24.4191C85.2122 24.2097 84.6711 24.0874 84.13 24.0526C83.589 24.0001 83.1526 23.974 82.821 23.974H78.8413C78.5795 23.974 78.3351 23.9653 78.1082 23.9478C77.8988 23.9129 77.7242 23.8693 77.5846 23.8169C77.4624 23.7471 77.4013 23.6424 77.4013 23.5028C77.4013 23.3456 77.506 23.1799 77.7155 23.0053C77.9424 22.8133 78.2828 22.6126 78.7366 22.4031C79.1031 22.4729 79.4435 22.5253 79.7577 22.5602C80.0719 22.5777 80.3861 22.5864 80.7002 22.5864C81.9046 22.5864 82.917 22.438 83.7373 22.1412C84.5751 21.8271 85.2035 21.3995 85.6224 20.8584C86.0413 20.2998 86.2508 19.6714 86.2508 18.9733C86.2508 18.2751 85.9977 17.6903 85.4915 17.2191C84.9853 16.7304 84.1126 16.3813 82.8733 16.1719V15.8577L87.4028 16.4599V13.7893H80.5955C79.3388 13.7893 78.2653 13.9812 77.3751 14.3653C76.485 14.7318 75.8042 15.2555 75.333 15.9361C74.8617 16.5994 74.626 17.3674 74.626 18.2402C74.626 19.2351 74.9053 20.0555 75.4639 20.7012C76.0399 21.3296 76.8515 21.7224 77.8988 21.8794V22.1936C76.7991 22.3333 76.0137 22.5864 75.5424 22.9529C75.0711 23.3195 74.8355 23.7384 74.8355 24.2097C74.8355 24.7159 75.0799 25.0999 75.5686 25.3617C76.0748 25.606 76.7991 25.7281 77.7417 25.7281V26.0161C76.5199 26.1908 75.5948 26.5224 74.9664 27.0111C74.3555 27.4999 74.05 28.1282 74.05 28.8962C74.05 29.4722 74.242 29.9697 74.626 30.3886C75.0275 30.8249 75.6821 31.1566 76.5897 31.3834ZM83.0304 28.7129C82.3846 28.8351 81.4595 28.8962 80.2551 28.8962C79.5744 28.8962 78.981 28.87 78.4748 28.8177C77.9861 28.7652 77.602 28.6518 77.3228 28.4772C77.0435 28.3028 76.9039 28.0409 76.9039 27.6919C76.9039 27.3428 77.0522 27.0373 77.349 26.7755C77.6457 26.5137 78.1693 26.2692 78.9199 26.0423H82.2973C82.5242 26.0423 82.7773 26.0511 83.0566 26.0685C83.3359 26.086 83.6064 26.1384 83.8682 26.2257C84.1475 26.2954 84.3744 26.4264 84.549 26.6183C84.7235 26.7929 84.8108 27.0548 84.8108 27.4039C84.8108 27.718 84.6799 27.9886 84.4181 28.2155C84.1562 28.4424 83.6937 28.6082 83.0304 28.7129ZM82.4282 20.0468C81.9919 20.4657 81.3722 20.6751 80.5693 20.6751C80.0282 20.6751 79.557 20.5791 79.1555 20.3871C78.7541 20.1951 78.4399 19.9245 78.213 19.5755C78.0035 19.2089 77.8988 18.7988 77.8988 18.3449C77.8988 17.6468 78.1344 17.0708 78.6057 16.6169C79.077 16.1631 79.7141 15.9361 80.517 15.9361C81.3199 15.9361 81.9482 16.1631 82.402 16.6169C82.8733 17.0708 83.109 17.6554 83.109 18.3711C83.109 19.0692 82.8821 19.6279 82.4282 20.0468Z" fill="#283841"/>
<path fill-rule="evenodd" clip-rule="evenodd" d="M66.4743 27.8751C65.1652 27.8751 64.0045 27.6046 62.9921 27.0635C61.9798 26.5224 61.1856 25.7195 60.6096 24.6548C60.0336 23.5901 59.7456 22.2635 59.7456 20.6751C59.7456 19.0519 60.0423 17.7079 60.6358 16.6432C61.2292 15.5784 62.0321 14.7842 63.0445 14.2606C64.0569 13.737 65.2002 13.4752 66.4743 13.4752C67.766 13.4752 68.918 13.7457 69.9303 14.2868C70.9427 14.8279 71.7369 15.6308 72.3129 16.6955C72.8887 17.7603 73.1767 19.0954 73.1767 20.7013C73.1767 22.3246 72.88 23.6686 72.2867 24.7333C71.7107 25.7981 70.9078 26.5923 69.878 27.1159C68.8656 27.622 67.7311 27.8751 66.4743 27.8751ZM66.5529 25.3355C67.2511 25.3355 67.8358 25.161 68.3071 24.8119C68.7958 24.4627 69.1711 23.9566 69.4329 23.2933C69.6947 22.6126 69.8256 21.801 69.8256 20.8584C69.8256 19.8635 69.686 19.017 69.4067 18.3187C69.1449 17.6206 68.7521 17.0795 68.2285 16.6955C67.7223 16.3115 67.1114 16.1195 66.3958 16.1195C65.6976 16.1195 65.1042 16.3028 64.6154 16.6693C64.1267 17.0184 63.7514 17.5333 63.4896 18.2141C63.2278 18.8773 63.0969 19.6803 63.0969 20.6228C63.0969 22.1064 63.4023 23.2672 64.0132 24.105C64.6241 24.9253 65.4707 25.3355 66.5529 25.3355Z" fill="#283841"/>
<path d="M48.7976 10.2286V27.5085H59.3751V24.6548H52.1227V10.2286H48.7976Z" fill="#283841"/>
</g>
<defs>
<clipPath id="clip0_1_665">
<rect width="168" height="32" fill="white" transform="translate(0.0959473)"/>
</clipPath>
</defs>
</svg>
