<svg width="193" height="32" viewBox="0 0 193 32" fill="none" xmlns="http://www.w3.org/2000/svg">
<g clip-path="url(#clip0_1_686)">
<path d="M18.7521 5.9864C18.2649 4.8096 17.5505 3.7408 16.6505 2.8408C15.7505 1.9408 14.6809 1.2264 13.5049 0.7392C12.3273 0.2504 11.0665 0 9.79294 0C9.50574 0 9.22094 0.0168 8.93614 0.0424C8.85134 0.0504 8.76734 0.0608 8.68334 0.0704C8.47374 0.0944 8.26494 0.1256 8.05773 0.1632C7.97453 0.1784 7.89133 0.192 7.80813 0.2096C7.53053 0.268 7.25453 0.3336 6.98333 0.416C6.98173 0.416 6.98013 0.416 6.97853 0.4176C6.70493 0.5008 6.43693 0.5992 6.17213 0.7064C6.14253 0.7184 6.11213 0.7264 6.08253 0.7384C6.03373 0.7584 5.98893 0.7848 5.94093 0.8056C5.74653 0.8896 5.55533 0.9808 5.36573 1.0776C5.29053 1.116 5.21453 1.1536 5.14013 1.1944C4.89053 1.3312 4.64493 1.4752 4.40733 1.6336C4.40573 1.6344 4.40493 1.6352 4.40333 1.636C4.16653 1.7944 3.93933 1.9664 3.71853 2.144C3.65213 2.1976 3.58813 2.2536 3.52253 2.3088C3.36173 2.4456 3.20493 2.5872 3.05373 2.7336C3.01533 2.7704 2.97373 2.8024 2.93613 2.84C2.91293 2.8632 2.89373 2.8888 2.87133 2.912C2.67133 3.116 2.47773 3.3248 2.29693 3.5456C2.29533 3.548 2.29373 3.5496 2.29213 3.552C2.11293 3.7704 1.94653 3.9992 1.78733 4.2328C1.74013 4.3024 1.69533 4.3736 1.64973 4.4448C1.53533 4.6224 1.42733 4.8032 1.32413 4.9872C1.28253 5.0616 1.24093 5.1352 1.20093 5.2104C1.06893 5.4624 0.944927 5.7184 0.835324 5.9824L0.833724 5.9856V5.9888C0.723324 6.2528 0.629724 6.5224 0.544924 6.7936C0.519324 6.8744 0.497724 6.956 0.474524 7.0368C0.416124 7.24 0.365724 7.4448 0.320924 7.6504C0.303324 7.7336 0.284124 7.816 0.268124 7.8992C0.216124 8.1776 0.171324 8.4576 0.143324 8.7392C0.143324 8.7408 0.143324 8.7432 0.143324 8.7448C0.115324 9.0288 0.104124 9.3144 0.101724 9.6C0.101724 9.632 0.0969238 9.664 0.0969238 9.696H0.102524C0.102524 10.328 0.158524 10.9616 0.283324 11.588C0.657724 13.4688 1.58093 15.1968 2.93693 16.5528C4.29293 17.9088 6.02093 18.832 7.90173 19.2064C9.78254 19.5808 11.7321 19.3888 13.5041 18.6544C15.2761 17.9208 16.7905 16.6776 17.8561 15.0832C18.9217 13.4888 19.4905 11.6136 19.4905 9.696C19.4905 8.4224 19.2401 7.1616 18.7521 5.9848V5.9864ZM12.2121 11.3128C11.8929 11.7912 11.4377 12.164 10.9065 12.384C10.3745 12.604 9.78974 12.6616 9.22574 12.5496C8.66094 12.4376 8.14334 12.16 7.73613 11.7536C7.32893 11.3464 7.05213 10.8288 6.94013 10.264C6.89693 10.0448 6.88653 9.8232 6.89373 9.6024C6.89773 9.4752 6.91053 9.3488 6.93133 9.2232C6.93933 9.1736 6.94653 9.124 6.95693 9.0744C6.99373 8.9072 7.04013 8.7416 7.10573 8.5832C7.17133 8.424 7.25533 8.2744 7.34733 8.1304C7.37453 8.088 7.40493 8.048 7.43453 8.0072C7.50813 7.904 7.58893 7.8064 7.67533 7.7136C7.70973 7.6768 7.74333 7.6392 7.78013 7.604C8.02813 7.3656 8.31534 7.1736 8.62974 7.036C8.67614 7.016 8.72334 6.9992 8.77054 6.9816C8.88974 6.9368 9.01134 6.9 9.13534 6.8712C9.18414 6.86 9.23294 6.8472 9.28254 6.8384C9.45134 6.808 9.62174 6.788 9.79374 6.788C10.1761 6.788 10.5537 6.8632 10.9073 7.0096C11.2601 7.156 11.5809 7.3704 11.8513 7.64C12.1217 7.9104 12.3353 8.2312 12.4817 8.584C12.6281 8.9368 12.7033 9.3152 12.7033 9.6976C12.7033 10.2728 12.5329 10.8352 12.2129 11.3136L12.2121 11.3128Z" fill="url(#paint0_linear_1_686)"/>
<path d="M17.856 27.6904C18.9216 26.096 19.4904 24.2208 19.4904 22.3032H12.7024C12.7024 22.8784 12.532 23.4408 12.212 23.9192C11.8928 24.3976 11.4384 24.7704 10.9064 24.9904C10.3744 25.2104 9.78963 25.268 9.22563 25.156C8.66163 25.044 8.14323 24.7664 7.73604 24.36C7.32884 23.9528 7.05204 23.4352 6.94004 22.8704C6.82804 22.3056 6.88564 21.7208 7.10564 21.1896C7.32563 20.6584 7.69844 20.204 8.17683 19.884C8.65443 19.5648 9.21523 19.3944 9.78883 19.3936H9.79283V12.6056H9.79043C7.87364 12.6056 5.99924 13.1744 4.40564 14.24C3.66324 14.736 2.99764 15.3288 2.42404 16C1.76484 16.7712 1.22644 17.6448 0.834437 18.592C0.100036 20.364 -0.0919634 22.3136 0.282437 24.1944C0.656837 26.0752 1.58004 27.8032 2.93604 29.1592C4.29204 30.5152 6.02004 31.4392 7.90084 31.8128C9.78163 32.1872 11.7312 31.9952 13.5032 31.2608C15.2752 30.5272 16.7896 29.284 17.8552 27.6896L17.856 27.6904Z" fill="url(#paint1_linear_1_686)"/>
<path d="M22.3992 12.6064C24.9712 12.6064 27.4376 13.628 29.256 15.4464C31.0744 17.2648 32.096 19.7312 32.096 22.3032C32.096 24.8752 31.0744 27.3416 29.256 29.16C27.4376 30.9784 24.9712 32 22.3992 32V25.212C23.1704 25.212 23.9104 24.9056 24.456 24.36C25.0016 23.8144 25.308 23.0744 25.308 22.3032C25.308 21.532 25.0016 20.792 24.456 20.2464C23.9104 19.7008 23.1704 19.3944 22.3992 19.3944V12.6064Z" fill="url(#paint2_linear_1_686)"/>
<path d="M22.3989 32C19.8269 32 17.3605 30.9784 15.5421 29.16C13.7237 27.3416 12.7021 24.8752 12.7021 22.3032C12.7021 19.7312 13.7237 17.2648 15.5421 15.4464C17.3605 13.628 19.8269 12.6064 22.3989 12.6064V19.3944C21.6277 19.3944 20.8877 19.7008 20.3421 20.2464C19.7965 20.792 19.4901 21.532 19.4901 22.3032C19.4901 23.0744 19.7965 23.8144 20.3421 24.36C20.8877 24.9056 21.6277 25.212 22.3989 25.212V32Z" fill="#1DC2C6"/>
<path d="M19.4896 9.69678H12.7016C12.7016 9.72078 12.7016 9.74478 12.7008 9.76878C12.692 10.1248 12.6176 10.4776 12.48 10.8104C12.4064 10.9872 12.3168 11.156 12.2112 11.3136C12.1976 11.3336 12.184 11.3536 12.1704 11.3728C11.9656 11.664 11.7072 11.916 11.4088 12.116C11.2496 12.2224 11.0808 12.312 10.9056 12.3848C10.8832 12.3944 10.8608 12.4032 10.8384 12.4112C10.5064 12.5392 10.152 12.6056 9.79199 12.6056V19.3936C11.0712 19.3936 12.332 19.1408 13.5032 18.6552C13.5392 18.6408 13.5744 18.6256 13.6096 18.6104C14.1552 18.3768 14.6808 18.092 15.1792 17.7592C16.2432 17.048 17.1504 16.1376 17.8544 15.084C17.876 15.052 17.8968 15.02 17.9184 14.9872C18.2424 14.4896 18.5216 13.9608 18.7504 13.4072C19.24 12.2248 19.4888 10.964 19.4888 9.69598L19.4896 9.69678Z" fill="#9BE183"/>
<path d="M12.7022 9.69678C12.7022 7.77917 13.271 5.90397 14.3366 4.30957C15.4022 2.71517 16.9166 1.47197 18.6886 0.738367C20.4598 0.0039669 22.4102 -0.188033 24.291 0.186367C26.1718 0.560767 27.8998 1.48397 29.2558 2.83997C30.6118 4.19597 31.5358 5.92397 31.9094 7.80477C32.2838 9.68558 32.0918 11.6352 31.3574 13.4072C30.6238 15.1792 29.3806 16.6936 27.7862 17.7592C26.1918 18.8248 24.3166 19.3936 22.399 19.3936V12.6056C22.9742 12.6056 23.5366 12.4352 24.015 12.1152C24.4934 11.796 24.8662 11.3416 25.0862 10.8096C25.3062 10.2776 25.3638 9.69278 25.2518 9.12878C25.1398 8.56478 24.8622 8.04638 24.4558 7.63917C24.0486 7.23197 23.531 6.95517 22.9662 6.84317C22.4022 6.73117 21.8166 6.78877 21.2854 7.00877C20.7542 7.22877 20.2998 7.60157 19.9798 8.07998C19.6598 8.55838 19.4894 9.12078 19.4894 9.69598H12.7014L12.7022 9.69678Z" fill="url(#paint3_linear_1_686)"/>
<path d="M48.2868 6.07208L45.263 20.2983H53.8454L52.8275 25.0873H43.5251C40.2419 25.0873 39.2763 23.3971 39.8452 20.7208L42.9588 6.07208H48.2868Z" fill="#0E293E"/>
<path d="M61.2269 25.5098C56.7341 25.5098 54.0255 22.1294 54.8997 18.0164C55.768 13.9317 59.9137 10.5512 64.4065 10.5512C68.8993 10.5512 71.608 13.9317 70.7397 18.0164C69.8655 22.1294 65.7197 25.5098 61.2269 25.5098ZM62.2389 20.749C63.8805 20.749 65.2384 19.5094 65.5497 18.0446C65.8671 16.5515 65.0361 15.312 63.3945 15.312C61.7529 15.312 60.3951 16.5515 60.0777 18.0446C59.7664 19.5094 60.5973 20.749 62.2389 20.749Z" fill="#0E293E"/>
<path d="M75.8441 31.989C72.2729 31.989 70.0101 30.4397 69.2722 27.6789L74.0424 25.4253C74.2997 26.3831 74.9541 27.369 76.7397 27.369C78.6117 27.369 80.0956 26.2141 80.6704 24.1857C79.8537 24.7773 78.6635 25.2281 77.0219 25.2281C73.0187 25.2281 70.4338 22.2138 71.332 17.9882C72.2002 13.9035 76.334 10.5793 80.8272 10.5793C85.4352 10.5793 88.0824 13.7063 87.1664 18.0164L85.9808 23.5942C84.9024 28.6649 80.596 31.989 75.8441 31.989ZM78.6387 20.4673C80.1936 20.4673 81.596 19.4249 81.9256 17.8756C82.2488 16.3543 81.284 15.3402 79.7285 15.3402C78.2021 15.3402 76.7769 16.3543 76.4536 17.8756C76.1242 19.4249 77.1123 20.4673 78.6387 20.4673Z" fill="#0E293E"/>
<path d="M94.6416 25.5098C90.1488 25.5098 87.4408 22.1294 88.3144 18.0164C89.1832 13.9317 93.3287 10.5512 97.8215 10.5512C102.314 10.5512 105.023 13.9317 104.154 18.0164C103.281 22.1294 99.1344 25.5098 94.6416 25.5098ZM95.6536 20.749C97.2951 20.749 98.6536 19.5094 98.9648 18.0446C99.2823 16.5515 98.4511 15.312 96.8096 15.312C95.168 15.312 93.8104 16.5515 93.4928 18.0446C93.1816 19.5094 94.012 20.749 95.6536 20.749Z" fill="#0E293E"/>
<path d="M110.293 9.50887C108.594 9.50887 107.476 8.12855 107.83 6.46644C108.182 4.80437 109.887 3.42401 111.586 3.42401C113.286 3.42401 114.403 4.80437 114.05 6.46644C113.697 8.12855 111.992 9.50887 110.293 9.50887ZM107.384 11.0019H112.568L109.574 25.0873H104.39L107.384 11.0019Z" fill="#0E293E"/>
<path d="M115.694 31.5665H110.51L113.39 18.0164C114.306 13.7063 118.283 10.5793 122.891 10.5793C127.383 10.5793 130.099 13.9317 129.23 18.0164C128.272 22.5237 124.584 25.5098 120.005 25.5098C118.939 25.5098 117.94 25.1999 117.149 24.721L115.694 31.5665ZM120.729 20.7489C122.371 20.7489 123.729 19.5094 124.04 18.0445C124.357 16.5515 123.52 15.3402 121.879 15.3402C120.237 15.3402 118.885 16.5515 118.568 18.0445C118.257 19.5094 119.087 20.7489 120.729 20.7489Z" fill="#0E293E"/>
<path d="M134.799 25.538C131.545 25.538 129.675 24.4394 128.892 22.2983L133.073 20.2419C133.4 21.1434 134.081 21.5941 135.377 21.5941C136.443 21.5941 137.011 21.2278 137.107 20.7771C137.472 19.0587 129.497 20.8053 130.659 15.3402C131.222 12.6922 133.981 10.5512 137.897 10.5512C141.325 10.5512 142.849 12.1851 143.349 13.7626L139.162 15.8473C139.025 15.0022 138.154 14.4951 137.175 14.4951C136.426 14.4951 135.957 14.805 135.867 15.2275C135.496 16.9741 143.441 15.3684 142.314 20.6645C141.686 23.6224 138.313 25.538 134.799 25.538Z" fill="#0E293E"/>
<path d="M150.762 20.5799C152.432 20.5799 153.47 19.0869 153.846 17.3121L155.188 11.0019H160.372L158.899 17.9319C158.018 22.0729 154.811 25.5098 149.714 25.5098C144.616 25.5098 142.87 22.0729 143.75 17.9319L145.223 11.0019H150.407L149.066 17.3121C148.689 19.0869 149.091 20.5799 150.762 20.5799Z" fill="#0E293E"/>
<path d="M180.348 10.4385C185.301 10.4385 186.973 13.819 186.141 17.7347L184.578 25.0873H179.394L180.771 18.608C181.149 16.8333 180.797 15.3684 178.897 15.3684C176.996 15.3684 176.051 16.8333 175.673 18.608L174.297 25.0873H169.113L170.489 18.608C170.867 16.8333 170.545 15.3684 168.644 15.3684C166.743 15.3684 165.769 16.8333 165.392 18.608L164.015 25.0873H158.831L160.393 17.7347C161.225 13.819 164.335 10.4385 169.289 10.4385C171.996 10.4385 173.733 11.4808 174.26 13.1993C175.576 11.4808 177.871 10.4385 180.348 10.4385Z" fill="#0E293E"/>
<path d="M192.702 9.17902C192.702 10.5045 191.628 11.579 190.302 11.579C188.977 11.579 187.902 10.5045 187.902 9.17902C187.902 7.85351 188.977 6.77899 190.302 6.77899C191.628 6.77899 192.702 7.85351 192.702 9.17902Z" fill="#0E293E"/>
</g>
<defs>
<linearGradient id="paint0_linear_1_686" x1="26.9457" y1="4.0896" x2="5.61773" y2="11.0624" gradientUnits="userSpaceOnUse">
<stop offset="0.637" stop-color="#F16930"/>
<stop offset="0.959" stop-color="#F8C70E"/>
</linearGradient>
<linearGradient id="paint1_linear_1_686" x1="8.69203" y1="22.184" x2="18.292" y2="24.984" gradientUnits="userSpaceOnUse">
<stop stop-color="#9BE183"/>
<stop offset="1" stop-color="#256B52"/>
</linearGradient>
<linearGradient id="paint2_linear_1_686" x1="26.096" y1="24" x2="23.824" y2="17.8768" gradientUnits="userSpaceOnUse">
<stop stop-color="#1DC2C6"/>
<stop offset="1" stop-color="#23336B"/>
</linearGradient>
<linearGradient id="paint3_linear_1_686" x1="26.2926" y1="13.1096" x2="21.696" y2="7.99997" gradientUnits="userSpaceOnUse">
<stop offset="0.245" stop-color="#1DC1C5"/>
<stop offset="1" stop-color="#9CE182"/>
</linearGradient>
<clipPath id="clip0_1_686">
<rect width="192.8" height="32" fill="white" transform="translate(0.0959473)"/>
</clipPath>
</defs>
</svg>
