<svg width="187" height="32" viewBox="0 0 187 32" fill="none" xmlns="http://www.w3.org/2000/svg">
<g clip-path="url(#clip0_1_703)">
<path d="M32.1709 31.9163V0.696777H15.3158L0.951423 15.0611L0.951416 31.9163H32.1709Z" fill="#2F2722"/>
<path fill-rule="evenodd" clip-rule="evenodd" d="M16.0231 21.4121V30.8398L9.56396 30.8397V18.7367L18.9916 9.30902H31.0947V15.7683H21.6671L16.0231 21.4121Z" fill="#D62727"/>
<path fill-rule="evenodd" clip-rule="evenodd" d="M8.48729 18.1825V30.8398L2.02808 30.8397L2.02808 15.507L15.7619 1.77332H31.0946V8.2325H18.4373L8.48729 18.1825Z" fill="#FFD43E"/>
<path fill-rule="evenodd" clip-rule="evenodd" d="M23.5586 24.6418V30.8398H17.0994V21.9663L22.2208 16.8448H31.0944V23.304H24.8964L23.5586 24.6418Z" fill="#EA721B"/>
<path d="M109.312 11.8544V26.0257H113.495V11.8544H109.312Z" fill="#2F2722"/>
<path d="M109.173 5.46344V9.96498H113.634V5.46344H109.173Z" fill="#2F2722"/>
<path fill-rule="evenodd" clip-rule="evenodd" d="M124.943 26.3037C123.585 26.3037 122.498 25.9887 121.68 25.3589C121.106 24.9174 120.697 24.3619 120.453 23.6928V31.7221H116.271V11.8544H120.369V14.1284C120.658 13.4671 121.132 12.9222 121.792 12.4935C122.702 11.8822 123.827 11.5765 125.166 11.5765C126.448 11.5765 127.554 11.8822 128.484 12.4935C129.432 13.0863 130.157 13.9292 130.659 15.0221C131.179 16.115 131.439 17.4025 131.439 18.8845C131.439 20.3851 131.17 21.691 130.631 22.8025C130.091 23.914 129.339 24.7754 128.372 25.3867C127.406 25.998 126.262 26.3037 124.943 26.3037ZM123.771 22.9692C124.757 22.9692 125.556 22.6173 126.169 21.9133C126.783 21.2093 127.09 20.209 127.09 18.9123C127.09 17.6156 126.774 16.6245 126.141 15.9391C125.528 15.2537 124.719 14.911 123.716 14.911C122.749 14.911 121.949 15.263 121.317 15.9669C120.704 16.6523 120.397 17.6434 120.397 18.9401C120.397 20.2368 120.704 21.2371 121.317 21.941C121.949 22.6265 122.767 22.9692 123.771 22.9692Z" fill="#2F2722"/>
<path d="M134.085 25.0532C135.311 25.8869 136.966 26.3037 139.048 26.3037C141.037 26.3037 142.571 25.9239 143.649 25.1644C144.746 24.3863 145.294 23.3026 145.294 21.9133C145.294 20.8203 144.922 19.8756 144.179 19.079C143.454 18.2639 142.376 17.7082 140.944 17.4118L138.379 16.8838C137.691 16.7357 137.199 16.5689 136.901 16.3837C136.603 16.1799 136.455 15.9113 136.455 15.5779C136.455 15.1888 136.631 14.8925 136.985 14.6887C137.356 14.4663 137.914 14.3552 138.657 14.3552C139.475 14.3552 140.108 14.4849 140.554 14.7442C141 14.985 141.26 15.3463 141.335 15.828H145.071C144.96 14.4942 144.346 13.4567 143.231 12.7158C142.115 11.9563 140.619 11.5765 138.742 11.5765C136.845 11.5765 135.368 11.9655 134.308 12.7435C133.248 13.503 132.719 14.5682 132.719 15.9391C132.719 17.0691 133.118 17.9953 133.918 18.7178C134.717 19.4217 135.962 19.9496 137.654 20.3016L139.941 20.7741C140.554 20.9037 140.972 21.0704 141.195 21.2742C141.437 21.4595 141.558 21.728 141.558 22.08C141.558 22.5431 141.353 22.9043 140.944 23.1637C140.554 23.4045 139.922 23.525 139.048 23.525C138.081 23.525 137.319 23.3675 136.762 23.0525C136.222 22.7191 135.906 22.2375 135.813 21.6076H132.077C132.189 23.0711 132.858 24.2196 134.085 25.0532Z" fill="#2F2722"/>
<path d="M163.34 11.8544H167.439V14.4406C167.88 13.6593 168.456 13.0195 169.168 12.5213C170.061 11.8914 171.13 11.5765 172.375 11.5765C173.862 11.5765 175.015 11.9933 175.833 12.827C176.271 13.2634 176.594 13.7583 176.803 14.3115C177.239 13.5886 177.808 12.9918 178.51 12.5213C179.439 11.8914 180.555 11.5765 181.856 11.5765C183.399 11.5765 184.579 12.0118 185.397 12.8825C186.234 13.7347 186.652 14.8554 186.652 16.2447V26.0257H182.469V17.0227C182.469 16.3003 182.274 15.7724 181.884 15.4389C181.512 15.087 180.982 14.911 180.294 14.911C179.699 14.911 179.151 15.0499 178.649 15.3278C178.166 15.5871 177.785 15.9669 177.506 16.467C177.227 16.9487 177.088 17.5229 177.088 18.1899V26.0257H172.905V17.0227C172.905 16.3003 172.71 15.7724 172.319 15.4389C171.948 15.087 171.418 14.911 170.73 14.911C170.135 14.911 169.587 15.0499 169.085 15.3278C168.602 15.5871 168.221 15.9669 167.941 16.467C167.663 16.9487 167.523 17.5229 167.523 18.1899V26.0257H163.34V11.8544Z" fill="#2F2722"/>
<path d="M151.453 26.3036C150.449 26.3036 149.584 26.0906 148.859 25.6646C148.153 25.2199 147.614 24.6364 147.242 23.914C146.87 23.1729 146.685 22.3487 146.685 21.4409V11.8544H150.867V20.6351C150.867 21.4132 151.062 21.9967 151.453 22.3856C151.843 22.7746 152.391 22.9691 153.098 22.9691C153.73 22.9691 154.287 22.821 154.77 22.5246C155.254 22.2282 155.635 21.8207 155.914 21.3019C156.211 20.7648 156.36 20.1535 156.36 19.468V11.8544H160.543V26.0258H156.444V23.4295C156 24.202 155.415 24.8452 154.687 25.3589C153.795 25.9887 152.717 26.3036 151.453 26.3036Z" fill="#2F2722"/>
<path fill-rule="evenodd" clip-rule="evenodd" d="M99.8439 26.3037C98.2821 26.3037 96.9069 25.998 95.7174 25.3867C94.5459 24.7568 93.6257 23.8862 92.9569 22.7747C92.3059 21.6447 91.9805 20.3479 91.9805 18.8845C91.9805 17.4211 92.3059 16.1429 92.9569 15.0499C93.6257 13.9569 94.5459 13.1048 95.7174 12.4935C96.9069 11.8822 98.2821 11.5765 99.8439 11.5765C101.424 11.5765 102.8 11.8822 103.971 12.4935C105.161 13.1048 106.081 13.9569 106.732 15.0499C107.382 16.1429 107.707 17.4211 107.707 18.8845C107.707 20.3479 107.372 21.6447 106.704 22.7747C106.053 23.8862 105.132 24.7568 103.943 25.3867C102.772 25.998 101.406 26.3037 99.8439 26.3037ZM99.8439 23.0247C100.495 23.0247 101.08 22.858 101.601 22.5246C102.14 22.1911 102.568 21.7188 102.883 21.1074C103.199 20.4776 103.358 19.7273 103.358 18.8567C103.358 17.5785 103.013 16.5967 102.326 15.9113C101.656 15.2074 100.83 14.8554 99.8439 14.8554C98.8589 14.8554 98.0222 15.2074 97.3346 15.9113C96.665 16.6152 96.3309 17.597 96.3309 18.8567C96.3309 19.7273 96.4886 20.4776 96.8047 21.1074C97.1208 21.7188 97.5391 22.1911 98.0597 22.5246C98.5982 22.858 99.1937 23.0247 99.8439 23.0247Z" fill="#2F2722"/>
<path fill-rule="evenodd" clip-rule="evenodd" d="M77.8728 30.7495C79.1185 31.5832 80.7263 32 82.6971 32C85.058 32 86.9164 31.4072 88.2736 30.2216C89.6309 29.0546 90.3091 27.4521 90.3091 25.4144V11.8544H86.21V14.278C85.9626 13.5681 85.5263 12.9826 84.8996 12.5213C84.0629 11.8914 82.9757 11.5765 81.6371 11.5765C80.3361 11.5765 79.1927 11.8729 78.2074 12.4657C77.2407 13.0585 76.4879 13.8921 75.9487 14.9665C75.4097 16.041 75.1401 17.3007 75.1401 18.7456C75.1401 20.172 75.4003 21.4131 75.9209 22.469C76.4414 23.525 77.1664 24.3493 78.0958 24.942C79.0436 25.5163 80.1503 25.8034 81.4139 25.8034C82.7337 25.8034 83.8397 25.5071 84.7326 24.9143C85.3874 24.4655 85.8526 23.9018 86.1265 23.2233V25.47C86.1265 26.4889 85.8385 27.2391 85.2625 27.7208C84.6857 28.2024 83.7655 28.4433 82.5019 28.4433C81.7394 28.4433 81.1072 28.3506 80.6053 28.1654C80.1222 27.9801 79.8061 27.7115 79.6571 27.3596H75.6978C75.9209 28.7859 76.6459 29.916 77.8728 30.7495ZM85.2625 21.6076C84.6491 22.2745 83.8491 22.608 82.8641 22.608C81.8604 22.608 81.0424 22.2745 80.4102 21.6076C79.7968 20.9408 79.49 19.9775 79.49 18.7178C79.49 17.4581 79.7968 16.4856 80.4102 15.8001C81.0424 15.1147 81.8416 14.772 82.8087 14.772C83.8124 14.772 84.621 15.1147 85.2344 15.8001C85.8666 16.467 86.1827 17.4303 86.1827 18.69C86.1827 19.9496 85.876 20.9222 85.2625 21.6076Z" fill="#2F2722"/>
<path fill-rule="evenodd" clip-rule="evenodd" d="M66.485 26.3037C64.9235 26.3037 63.5479 25.998 62.3581 25.3867C61.187 24.7568 60.2668 23.8862 59.5976 22.7747C58.9469 21.6447 58.6216 20.3479 58.6216 18.8845C58.6216 17.4211 58.9469 16.1429 59.5976 15.0499C60.2668 13.9569 61.187 13.1048 62.3581 12.4935C63.5479 11.8822 64.9235 11.5765 66.485 11.5765C68.0652 11.5765 69.4408 11.8822 70.6119 12.4935C71.8017 13.1048 72.7218 13.9569 73.3724 15.0499C74.0231 16.1429 74.3484 17.4211 74.3484 18.8845C74.3484 20.3479 74.0138 21.6447 73.3445 22.7747C72.6939 23.8862 71.7737 24.7568 70.584 25.3867C69.4128 25.998 68.0465 26.3037 66.485 26.3037ZM66.485 23.0247C67.1357 23.0247 67.7212 22.858 68.2417 22.5246C68.7808 22.1911 69.2084 21.7188 69.5245 21.1074C69.8404 20.4776 69.9984 19.7273 69.9984 18.8567C69.9984 17.5785 69.6546 16.5967 68.9667 15.9113C68.2974 15.2074 67.4703 14.8554 66.485 14.8554C65.4998 14.8554 64.6632 15.2074 63.9754 15.9113C63.3062 16.6152 62.9716 17.597 62.9716 18.8567C62.9716 19.7273 63.1296 20.4776 63.4456 21.1074C63.7616 21.7188 64.1799 22.1911 64.7004 22.5246C65.2395 22.858 65.8344 23.0247 66.485 23.0247Z" fill="#2F2722"/>
<path d="M44.603 6.01917V26.0258H58.5452V22.7469H48.8972V6.01917H44.603Z" fill="#2F2722"/>
</g>
<defs>
<clipPath id="clip0_1_703">
<rect width="185.756" height="32" fill="white" transform="translate(0.895996)"/>
</clipPath>
</defs>
</svg>
