<svg width="120" height="32" viewBox="0 0 120 32" fill="none" xmlns="http://www.w3.org/2000/svg">
<rect width="32" height="32" rx="8" fill="#635BFF"/>
<path d="M8.47369 10.9425C8.04794 9.43726 9.43727 8.04794 10.9425 8.47369L15.4557 9.7502C15.8116 9.85087 16.1884 9.85087 16.5443 9.7502L21.0575 8.47369C22.5627 8.04794 23.9521 9.43727 23.5263 10.9425L22.2498 15.4557C22.1491 15.8116 22.1491 16.1884 22.2498 16.5443L23.5263 21.0575C23.9521 22.5627 22.5627 23.9521 21.0575 23.5263L16.5443 22.2498C16.1884 22.1491 15.8116 22.1491 15.4557 22.2498L10.9425 23.5263C9.43726 23.9521 8.04794 22.5627 8.47369 21.0575L9.7502 16.5443C9.85087 16.1884 9.85087 15.8116 9.7502 15.4557L8.47369 10.9425Z" fill="white"/>
<path d="M44.84 25L50.96 7.24H55.208L61.352 25H57.944L56.672 21.256H49.52L48.248 25H44.84ZM50.456 18.424H55.736L53.096 10.576L50.456 18.424ZM62.4755 25V7.24H65.7395V25H62.4755ZM72.6581 25.24C71.6181 25.24 70.7621 25.104 70.0901 24.832C69.4181 24.544 68.8821 24.192 68.4821 23.776C68.0981 23.344 67.8101 22.92 67.6181 22.504C67.4261 22.088 67.2981 21.744 67.2341 21.472C67.1861 21.184 67.1621 21.04 67.1621 21.04H70.1861C70.1861 21.04 70.2101 21.128 70.2581 21.304C70.3221 21.48 70.4341 21.688 70.5941 21.928C70.7701 22.152 71.0341 22.352 71.3861 22.528C71.7381 22.704 72.2021 22.792 72.7781 22.792C73.4661 22.792 73.9621 22.648 74.2661 22.36C74.5701 22.056 74.7221 21.72 74.7221 21.352C74.7221 21 74.5861 20.72 74.3141 20.512C74.0581 20.288 73.6741 20.12 73.1621 20.008L71.4101 19.648C70.7061 19.504 70.0501 19.296 69.4421 19.024C68.8341 18.736 68.3381 18.352 67.9541 17.872C67.5701 17.376 67.3781 16.744 67.3781 15.976C67.3781 14.84 67.8101 13.904 68.6741 13.168C69.5381 12.416 70.7141 12.04 72.2021 12.04C73.1461 12.04 73.9221 12.168 74.5301 12.424C75.1541 12.68 75.6501 13 76.0181 13.384C76.4021 13.768 76.6821 14.152 76.8581 14.536C77.0501 14.92 77.1701 15.248 77.2181 15.52C77.2821 15.776 77.3141 15.904 77.3141 15.904H74.3861C74.3861 15.904 74.3621 15.832 74.3141 15.688C74.2661 15.528 74.1621 15.352 74.0021 15.16C73.8581 14.968 73.6341 14.8 73.3301 14.656C73.0421 14.496 72.6501 14.416 72.1541 14.416C71.4821 14.416 71.0021 14.56 70.7141 14.848C70.4421 15.136 70.3061 15.44 70.3061 15.76C70.3061 16.112 70.4581 16.384 70.7621 16.576C71.0661 16.768 71.4581 16.912 71.9381 17.008L73.5941 17.368C74.7781 17.608 75.7461 18.024 76.4981 18.616C77.2661 19.208 77.6501 20.064 77.6501 21.184C77.6501 21.936 77.4501 22.624 77.0501 23.248C76.6661 23.856 76.0981 24.344 75.3461 24.712C74.6101 25.064 73.7141 25.24 72.6581 25.24ZM78.9783 29.704V12.28H82.1703V14.056H82.3383C82.4503 13.864 82.6503 13.608 82.9383 13.288C83.2423 12.968 83.6583 12.68 84.1863 12.424C84.7143 12.168 85.3863 12.04 86.2023 12.04C87.1623 12.04 87.9943 12.232 88.6983 12.616C89.4023 12.984 89.9863 13.488 90.4503 14.128C90.9143 14.752 91.2583 15.456 91.4823 16.24C91.7223 17.024 91.8423 17.824 91.8423 18.64C91.8423 19.456 91.7223 20.256 91.4823 21.04C91.2583 21.824 90.9143 22.536 90.4503 23.176C89.9863 23.8 89.4023 24.304 88.6983 24.688C87.9943 25.056 87.1623 25.24 86.2023 25.24C85.3863 25.24 84.7143 25.112 84.1863 24.856C83.6583 24.584 83.2423 24.288 82.9383 23.968C82.6503 23.648 82.4503 23.4 82.3383 23.224H82.1703V29.704H78.9783ZM82.1223 18.64C82.1223 19.296 82.2423 19.928 82.4823 20.536C82.7223 21.144 83.0823 21.648 83.5623 22.048C84.0423 22.432 84.6423 22.624 85.3623 22.624C86.0983 22.624 86.7063 22.432 87.1863 22.048C87.6663 21.648 88.0263 21.144 88.2663 20.536C88.5063 19.928 88.6263 19.296 88.6263 18.64C88.6263 17.984 88.5063 17.352 88.2663 16.744C88.0263 16.136 87.6663 15.64 87.1863 15.256C86.7063 14.856 86.0983 14.656 85.3623 14.656C84.6423 14.656 84.0423 14.856 83.5623 15.256C83.0823 15.64 82.7223 16.136 82.4823 16.744C82.2423 17.352 82.1223 17.984 82.1223 18.64ZM95.1089 10.312C94.5489 10.312 94.0849 10.128 93.7169 9.76C93.3649 9.392 93.1889 8.952 93.1889 8.44C93.1889 7.928 93.3649 7.488 93.7169 7.12C94.0849 6.752 94.5489 6.568 95.1089 6.568C95.6689 6.568 96.1329 6.752 96.5009 7.12C96.8689 7.488 97.0529 7.928 97.0529 8.44C97.0529 8.952 96.8689 9.392 96.5009 9.76C96.1329 10.128 95.6689 10.312 95.1089 10.312ZM93.5249 25V12.28H96.7169V25H93.5249ZM98.5927 25V12.28H101.761V14.032H101.881C102.105 13.536 102.473 13.08 102.985 12.664C103.497 12.248 104.265 12.04 105.289 12.04C105.609 12.04 105.873 12.064 106.081 12.112C106.289 12.144 106.393 12.16 106.393 12.16V15.256C106.393 15.256 106.273 15.24 106.033 15.208C105.809 15.176 105.529 15.16 105.193 15.16C104.073 15.16 103.225 15.472 102.649 16.096C102.073 16.72 101.785 17.728 101.785 19.12V25H98.5927ZM112.601 25.24C111.513 25.24 110.569 25.056 109.769 24.688C108.985 24.304 108.329 23.8 107.801 23.176C107.289 22.536 106.905 21.824 106.649 21.04C106.393 20.256 106.265 19.456 106.265 18.64C106.265 17.824 106.385 17.032 106.625 16.264C106.881 15.48 107.257 14.768 107.753 14.128C108.265 13.488 108.913 12.984 109.697 12.616C110.481 12.232 111.409 12.04 112.481 12.04C113.633 12.04 114.649 12.296 115.529 12.808C116.409 13.32 117.097 14.072 117.593 15.064C118.089 16.04 118.337 17.256 118.337 18.712V19.528H109.481C109.529 20.392 109.825 21.144 110.369 21.784C110.913 22.408 111.657 22.72 112.601 22.72C113.145 22.72 113.593 22.632 113.945 22.456C114.297 22.28 114.569 22.08 114.761 21.856C114.953 21.616 115.089 21.416 115.169 21.256C115.249 21.08 115.289 20.992 115.289 20.992H118.241C118.241 20.992 118.201 21.136 118.121 21.424C118.041 21.696 117.889 22.048 117.665 22.48C117.457 22.896 117.145 23.32 116.729 23.752C116.313 24.168 115.769 24.52 115.097 24.808C114.425 25.096 113.593 25.24 112.601 25.24ZM109.481 17.44H115.265C115.217 16.448 114.921 15.712 114.377 15.232C113.833 14.752 113.193 14.512 112.457 14.512C111.641 14.512 110.961 14.776 110.417 15.304C109.873 15.816 109.561 16.528 109.481 17.44Z" fill="black"/>
</svg>
