<svg width="132" height="24" viewBox="0 0 132 24" fill="none" xmlns="http://www.w3.org/2000/svg">
<path d="M5.99518 8.89334L1.74184 9.51001L1.66651 9.52534C1.55247 9.55562 1.44851 9.61562 1.36524 9.69921C1.28197 9.78281 1.22238 9.887 1.19255 10.0012C1.16272 10.1153 1.16373 10.2353 1.19546 10.349C1.2272 10.4626 1.28852 10.5658 1.37318 10.648L4.45451 13.6473L3.72784 17.884L3.71918 17.9573C3.7122 18.0753 3.73669 18.193 3.79014 18.2983C3.8436 18.4037 3.9241 18.493 4.0234 18.557C4.1227 18.621 4.23724 18.6575 4.35528 18.6627C4.47332 18.668 4.59062 18.6417 4.69518 18.5867L8.49918 16.5867L12.2945 18.5867L12.3612 18.6173C12.4712 18.6607 12.5908 18.674 12.7077 18.6558C12.8246 18.6377 12.9345 18.5888 13.0262 18.5142C13.118 18.4395 13.1882 18.3418 13.2297 18.2311C13.2713 18.1204 13.2826 18.0006 13.2625 17.884L12.5352 13.6473L15.6178 10.6473L15.6698 10.5907C15.7441 10.4992 15.7928 10.3896 15.811 10.2732C15.8292 10.1568 15.8161 10.0376 15.7732 9.92783C15.7303 9.81807 15.6591 9.72163 15.5668 9.64835C15.4745 9.57507 15.3645 9.52757 15.2478 9.51068L10.9945 8.89334L9.09318 5.04001C9.03816 4.92837 8.95299 4.83435 8.8473 4.76861C8.74162 4.70287 8.61964 4.66803 8.49518 4.66803C8.37071 4.66803 8.24874 4.70287 8.14305 4.76861C8.03737 4.83435 7.95219 4.92837 7.89718 5.04001L5.99518 8.89334Z" fill="#F2AE40"/>
<path d="M25.9952 8.89334L21.7418 9.51001L21.6665 9.52534C21.5525 9.55562 21.4485 9.61562 21.3652 9.69921C21.282 9.78281 21.2224 9.887 21.1926 10.0012C21.1627 10.1153 21.1637 10.2353 21.1955 10.349C21.2272 10.4626 21.2885 10.5658 21.3732 10.648L24.4545 13.6473L23.7278 17.884L23.7192 17.9573C23.7122 18.0753 23.7367 18.193 23.7901 18.2983C23.8436 18.4037 23.9241 18.493 24.0234 18.557C24.1227 18.621 24.2372 18.6575 24.3553 18.6627C24.4733 18.668 24.5906 18.6417 24.6952 18.5867L28.4992 16.5867L32.2945 18.5867L32.3612 18.6173C32.4712 18.6607 32.5908 18.674 32.7077 18.6558C32.8246 18.6377 32.9345 18.5888 33.0262 18.5142C33.118 18.4395 33.1882 18.3418 33.2297 18.2311C33.2713 18.1204 33.2826 18.0006 33.2625 17.884L32.5352 13.6473L35.6178 10.6473L35.6698 10.5907C35.7441 10.4992 35.7928 10.3896 35.811 10.2732C35.8292 10.1568 35.8161 10.0376 35.7732 9.92783C35.7303 9.81807 35.6591 9.72163 35.5668 9.64835C35.4745 9.57507 35.3645 9.52757 35.2478 9.51068L30.9945 8.89334L29.0932 5.04001C29.0382 4.92837 28.953 4.83435 28.8473 4.76861C28.7416 4.70287 28.6196 4.66803 28.4952 4.66803C28.3707 4.66803 28.2487 4.70287 28.1431 4.76861C28.0374 4.83435 27.9522 4.92837 27.8972 5.04001L25.9952 8.89334Z" fill="#F2AE40"/>
<path d="M45.9952 8.89334L41.7418 9.51001L41.6665 9.52534C41.5525 9.55562 41.4485 9.61562 41.3652 9.69921C41.282 9.78281 41.2224 9.887 41.1926 10.0012C41.1627 10.1153 41.1637 10.2353 41.1955 10.349C41.2272 10.4626 41.2885 10.5658 41.3732 10.648L44.4545 13.6473L43.7278 17.884L43.7192 17.9573C43.7122 18.0753 43.7367 18.193 43.7901 18.2983C43.8436 18.4037 43.9241 18.493 44.0234 18.557C44.1227 18.621 44.2372 18.6575 44.3553 18.6627C44.4733 18.668 44.5906 18.6417 44.6952 18.5867L48.4992 16.5867L52.2945 18.5867L52.3612 18.6173C52.4712 18.6607 52.5908 18.674 52.7077 18.6558C52.8246 18.6377 52.9345 18.5888 53.0262 18.5142C53.118 18.4395 53.1882 18.3418 53.2297 18.2311C53.2713 18.1204 53.2826 18.0006 53.2625 17.884L52.5352 13.6473L55.6178 10.6473L55.6698 10.5907C55.7441 10.4992 55.7928 10.3896 55.811 10.2732C55.8292 10.1568 55.8161 10.0376 55.7732 9.92783C55.7303 9.81807 55.6591 9.72163 55.5668 9.64835C55.4745 9.57507 55.3645 9.52757 55.2478 9.51068L50.9945 8.89334L49.0932 5.04001C49.0382 4.92837 48.953 4.83435 48.8473 4.76861C48.7416 4.70287 48.6196 4.66803 48.4952 4.66803C48.3707 4.66803 48.2487 4.70287 48.1431 4.76861C48.0374 4.83435 47.9522 4.92837 47.8972 5.04001L45.9952 8.89334Z" fill="#F2AE40"/>
<path d="M65.9952 8.89334L61.7418 9.51001L61.6665 9.52534C61.5525 9.55562 61.4485 9.61562 61.3652 9.69921C61.282 9.78281 61.2224 9.887 61.1926 10.0012C61.1627 10.1153 61.1637 10.2353 61.1955 10.349C61.2272 10.4626 61.2885 10.5658 61.3732 10.648L64.4545 13.6473L63.7278 17.884L63.7192 17.9573C63.7122 18.0753 63.7367 18.193 63.7901 18.2983C63.8436 18.4037 63.9241 18.493 64.0234 18.557C64.1227 18.621 64.2372 18.6575 64.3553 18.6627C64.4733 18.668 64.5906 18.6417 64.6952 18.5867L68.4992 16.5867L72.2945 18.5867L72.3612 18.6173C72.4712 18.6607 72.5908 18.674 72.7077 18.6558C72.8246 18.6377 72.9345 18.5888 73.0262 18.5142C73.118 18.4395 73.1882 18.3418 73.2297 18.2311C73.2713 18.1204 73.2826 18.0006 73.2625 17.884L72.5352 13.6473L75.6178 10.6473L75.6698 10.5907C75.7441 10.4992 75.7928 10.3896 75.811 10.2732C75.8292 10.1568 75.8161 10.0376 75.7732 9.92783C75.7303 9.81807 75.6591 9.72163 75.5668 9.64835C75.4745 9.57507 75.3645 9.52757 75.2478 9.51068L70.9945 8.89334L69.0932 5.04001C69.0382 4.92837 68.953 4.83435 68.8473 4.76861C68.7416 4.70287 68.6196 4.66803 68.4952 4.66803C68.3707 4.66803 68.2487 4.70287 68.1431 4.76861C68.0374 4.83435 67.9522 4.92837 67.8972 5.04001L65.9952 8.89334Z" fill="#F2AE40"/>
<path d="M85.9952 8.89334L81.7418 9.51001L81.6665 9.52534C81.5525 9.55562 81.4485 9.61562 81.3652 9.69921C81.282 9.78281 81.2224 9.887 81.1926 10.0012C81.1627 10.1153 81.1637 10.2353 81.1955 10.349C81.2272 10.4626 81.2885 10.5658 81.3732 10.648L84.4545 13.6473L83.7278 17.884L83.7192 17.9573C83.7122 18.0753 83.7367 18.193 83.7901 18.2983C83.8436 18.4037 83.9241 18.493 84.0234 18.557C84.1227 18.621 84.2372 18.6575 84.3553 18.6627C84.4733 18.668 84.5906 18.6417 84.6952 18.5867L88.4992 16.5867L92.2945 18.5867L92.3612 18.6173C92.4712 18.6607 92.5908 18.674 92.7077 18.6558C92.8246 18.6377 92.9345 18.5888 93.0262 18.5142C93.118 18.4395 93.1882 18.3418 93.2297 18.2311C93.2713 18.1204 93.2826 18.0006 93.2625 17.884L92.5352 13.6473L95.6178 10.6473L95.6698 10.5907C95.7441 10.4992 95.7928 10.3896 95.811 10.2732C95.8292 10.1568 95.8161 10.0376 95.7732 9.92783C95.7303 9.81807 95.6591 9.72163 95.5668 9.64835C95.4745 9.57507 95.3645 9.52757 95.2478 9.51068L90.9945 8.89334L89.0932 5.04001C89.0382 4.92837 88.953 4.83435 88.8473 4.76861C88.7416 4.70287 88.6196 4.66803 88.4952 4.66803C88.3707 4.66803 88.2487 4.70287 88.1431 4.76861C88.0374 4.83435 87.9522 4.92837 87.8972 5.04001L85.9952 8.89334Z" fill="#F2AE40"/>
<path d="M107.375 15.7273V14.3068L112.403 6.36364H113.523V8.45455H112.812L109.216 14.1477V14.2386H116.108V15.7273H107.375ZM112.892 18V15.2955L112.903 14.6477V6.36364H114.568V18H112.892ZM118.553 18.108C118.242 18.108 117.975 17.9981 117.751 17.7784C117.528 17.5549 117.416 17.286 117.416 16.9716C117.416 16.661 117.528 16.3958 117.751 16.1761C117.975 15.9527 118.242 15.8409 118.553 15.8409C118.863 15.8409 119.13 15.9527 119.354 16.1761C119.577 16.3958 119.689 16.661 119.689 16.9716C119.689 17.1799 119.636 17.3712 119.53 17.5455C119.428 17.7159 119.291 17.8523 119.121 17.9545C118.95 18.0568 118.761 18.108 118.553 18.108ZM125.431 6.20455C125.949 6.20833 126.461 6.30303 126.965 6.48864C127.468 6.67424 127.923 6.97727 128.328 7.39773C128.737 7.81818 129.063 8.38636 129.306 9.10227C129.552 9.81439 129.677 10.7008 129.681 11.7614C129.681 12.7803 129.578 13.6875 129.374 14.483C129.169 15.2746 128.876 15.9432 128.493 16.4886C128.114 17.0341 127.654 17.4489 127.112 17.733C126.571 18.017 125.961 18.1591 125.283 18.1591C124.59 18.1591 123.974 18.0227 123.436 17.75C122.898 17.4773 122.461 17.1004 122.124 16.6193C121.787 16.1345 121.576 15.5777 121.493 14.9489H123.226C123.34 15.4489 123.571 15.8542 123.919 16.1648C124.271 16.4716 124.726 16.625 125.283 16.625C126.135 16.625 126.8 16.2538 127.277 15.5114C127.754 14.7652 127.995 13.7235 127.999 12.3864H127.908C127.711 12.7121 127.465 12.9924 127.169 13.2273C126.877 13.4621 126.55 13.6439 126.186 13.7727C125.823 13.9015 125.434 13.9659 125.021 13.9659C124.351 13.9659 123.741 13.8011 123.192 13.4716C122.643 13.142 122.205 12.6894 121.879 12.1136C121.554 11.5379 121.391 10.8807 121.391 10.142C121.391 9.4072 121.557 8.74053 121.891 8.14205C122.228 7.54356 122.698 7.07008 123.3 6.72159C123.906 6.36932 124.616 6.19697 125.431 6.20455ZM125.436 7.68182C124.993 7.68182 124.593 7.79167 124.237 8.01136C123.885 8.22727 123.607 8.52083 123.402 8.89205C123.198 9.25947 123.095 9.66856 123.095 10.1193C123.095 10.5701 123.194 10.9792 123.391 11.3466C123.591 11.7102 123.864 12 124.209 12.2159C124.557 12.428 124.955 12.5341 125.402 12.5341C125.735 12.5341 126.046 12.4697 126.334 12.3409C126.622 12.2121 126.874 12.0341 127.09 11.8068C127.306 11.5758 127.474 11.3144 127.595 11.0227C127.716 10.7311 127.777 10.4242 127.777 10.1023C127.777 9.67424 127.675 9.27652 127.47 8.90909C127.27 8.54167 126.993 8.24621 126.641 8.02273C126.288 7.79545 125.887 7.68182 125.436 7.68182Z" fill="#0A0D14"/>
</svg>
