<svg width="24" height="24" viewBox="0 0 24 24" fill="none" xmlns="http://www.w3.org/2000/svg">
<path d="M12.0004 3.27246C9.63033 3.27246 9.33289 3.28282 8.402 3.32519C7.47294 3.36773 6.83878 3.51482 6.28389 3.73064C5.7099 3.95355 5.22301 4.25173 4.73793 4.73701C4.25249 5.2221 3.95432 5.70901 3.73069 6.28282C3.51433 6.83792 3.36707 7.47228 3.32525 8.40101C3.28361 9.33192 3.27271 9.62955 3.27271 11.9997C3.27271 14.3699 3.28325 14.6665 3.32543 15.5974C3.36816 16.5265 3.51524 17.1606 3.73087 17.7156C3.95396 18.2896 4.25213 18.7765 4.73739 19.2616C5.22228 19.747 5.70918 20.0459 6.2828 20.2688C6.83805 20.4846 7.4724 20.6317 8.40128 20.6743C9.33216 20.7166 9.62942 20.727 11.9993 20.727C14.3696 20.727 14.6662 20.7166 15.5971 20.6743C16.5261 20.6317 17.161 20.4846 17.7163 20.2688C18.2901 20.0459 18.7762 19.747 19.2611 19.2616C19.7466 18.7765 20.0447 18.2896 20.2684 17.7157C20.4829 17.1606 20.6302 16.5263 20.6738 15.5976C20.7156 14.6666 20.7265 14.3699 20.7265 11.9997C20.7265 9.62955 20.7156 9.3321 20.6738 8.40119C20.6302 7.4721 20.4829 6.83791 20.2684 6.28301C20.0447 5.70901 19.7466 5.2221 19.2611 4.73701C18.7757 4.25155 18.2903 3.95337 17.7157 3.73064C17.1594 3.51482 16.5248 3.36773 15.5958 3.32519C14.6649 3.28282 14.3686 3.27246 11.9977 3.27246H12.0004ZM11.2176 4.84519C11.4499 4.84482 11.7092 4.84519 12.0004 4.84519C14.3306 4.84519 14.6067 4.85355 15.5269 4.89537C16.3778 4.93428 16.8396 5.07646 17.1472 5.19592C17.5545 5.3541 17.8448 5.54319 18.1501 5.84864C18.4555 6.1541 18.6446 6.44501 18.8031 6.85228C18.9226 7.15955 19.065 7.62137 19.1037 8.47228C19.1455 9.39228 19.1546 9.66864 19.1546 11.9977C19.1546 14.3268 19.1455 14.6032 19.1037 15.5232C19.0648 16.3741 18.9226 16.8359 18.8031 17.1432C18.645 17.5505 18.4555 17.8405 18.1501 18.1457C17.8446 18.4512 17.5546 18.6403 17.1472 18.7985C16.8399 18.9185 16.3778 19.0603 15.5269 19.0992C14.6069 19.141 14.3306 19.1501 12.0004 19.1501C9.67015 19.1501 9.39397 19.141 8.474 19.0992C7.62312 19.0599 7.16131 18.9177 6.85351 18.7983C6.44625 18.6401 6.15534 18.451 5.8499 18.1456C5.54445 17.8401 5.35537 17.5499 5.19683 17.1425C5.07738 16.8352 4.93502 16.3734 4.89629 15.5225C4.85448 14.6025 4.84611 14.3261 4.84611 11.9956C4.84611 9.66501 4.85448 9.3901 4.89629 8.4701C4.9352 7.61919 5.07738 7.15737 5.19683 6.84973C5.35501 6.44246 5.54445 6.15155 5.8499 5.8461C6.15534 5.54064 6.44625 5.35155 6.85351 5.19301C7.16113 5.07301 7.62312 4.93119 8.474 4.8921C9.27907 4.85573 9.59106 4.84482 11.2176 4.84301V4.84519ZM16.6588 6.29428C16.0807 6.29428 15.6116 6.76282 15.6116 7.34119C15.6116 7.91937 16.0807 8.38846 16.6588 8.38846C17.237 8.38846 17.7061 7.91937 17.7061 7.34119C17.7061 6.76301 17.237 6.29392 16.6588 6.29392V6.29428ZM12.0004 7.51791C9.52542 7.51791 7.51876 9.52464 7.51876 11.9997C7.51876 14.4748 9.52542 16.4806 12.0004 16.4806C14.4755 16.4806 16.4814 14.4748 16.4814 11.9997C16.4814 9.52464 14.4753 7.51791 12.0003 7.51791H12.0004ZM12.0004 9.09064C13.6069 9.09064 14.9094 10.393 14.9094 11.9997C14.9094 13.6063 13.6069 14.9088 12.0004 14.9088C10.3938 14.9088 9.09144 13.6063 9.09144 11.9997C9.09144 10.393 10.3938 9.09064 12.0004 9.09064Z" fill="white"/>
</svg>
