<svg width="24" height="24" viewBox="0 0 24 24" fill="none" xmlns="http://www.w3.org/2000/svg">
<path fill-rule="evenodd" clip-rule="evenodd" d="M19.7716 8.08863C19.7784 8.26352 19.7807 8.43833 19.7807 8.61322C19.7807 13.9154 16.0508 20.0365 9.23024 20.0365C7.13507 20.0365 5.18687 19.3687 3.54541 18.232C3.83557 18.2638 4.13025 18.2877 4.42945 18.2877C6.16663 18.2877 7.76664 17.6437 9.0358 16.5625C7.41318 16.5387 6.04304 15.3701 5.57049 13.7803C5.79734 13.828 6.03096 13.8519 6.26987 13.8519C6.60675 13.8519 6.93384 13.8043 7.24736 13.7089C5.54937 13.3432 4.27043 11.7216 4.27043 9.77398C4.27043 9.75013 4.27043 9.74214 4.27043 9.72624C4.77086 10.0204 5.34363 10.2031 5.95183 10.227C4.9555 9.50357 4.30056 8.27145 4.30056 6.88032C4.30056 6.14898 4.48295 5.45736 4.804 4.86116C6.63237 7.29365 9.3659 8.89149 12.4476 9.05843C12.3843 8.7643 12.3519 8.45436 12.3519 8.14433C12.3519 5.92647 14.0122 4.12988 16.0606 4.12988C17.127 4.12988 18.0902 4.61486 18.7662 5.3939C19.6126 5.21901 20.4054 4.88516 21.1229 4.4241C20.8448 5.36212 20.2577 6.14894 19.4905 6.6418C20.2411 6.54641 20.9571 6.33194 21.6211 6.01397C21.1229 6.81685 20.4959 7.52423 19.7716 8.08863Z" fill="white"/>
</svg>
