<svg width="33" height="32" viewBox="0 0 33 32" fill="none" xmlns="http://www.w3.org/2000/svg">
<path d="M22.0013 24C22.7085 24 23.3868 24.2809 23.8869 24.781C24.387 25.2811 24.668 25.9594 24.668 26.6666C24.668 25.9594 24.9489 25.2811 25.449 24.781C25.9491 24.2809 26.6274 24 27.3346 24C26.6274 24 25.9491 23.719 25.449 23.2189C24.9489 22.7188 24.668 22.0406 24.668 21.3333C24.668 22.0406 24.387 22.7188 23.8869 23.2189C23.3868 23.719 22.7085 24 22.0013 24ZM22.0013 7.99998C22.7085 7.99998 23.3868 8.28093 23.8869 8.78103C24.387 9.28113 24.668 9.9594 24.668 10.6666C24.668 9.9594 24.9489 9.28113 25.449 8.78103C25.9491 8.28093 26.6274 7.99998 27.3346 7.99998C26.6274 7.99998 25.9491 7.71903 25.449 7.21893C24.9489 6.71883 24.668 6.04056 24.668 5.33331C24.668 6.04056 24.387 6.71883 23.8869 7.21893C23.3868 7.71903 22.7085 7.99998 22.0013 7.99998ZM12.668 24C12.668 21.8782 13.5108 19.8434 15.0111 18.3431C16.5114 16.8428 18.5462 16 20.668 16C18.5462 16 16.5114 15.1571 15.0111 13.6568C13.5108 12.1565 12.668 10.1217 12.668 7.99998C12.668 10.1217 11.8251 12.1565 10.3248 13.6568C8.82453 15.1571 6.7897 16 4.66797 16C6.7897 16 8.82453 16.8428 10.3248 18.3431C11.8251 19.8434 12.668 21.8782 12.668 24Z" stroke="#635BFF" stroke-width="2.66667" stroke-linecap="round" stroke-linejoin="round"/>
</svg>
