<svg width="160" height="24" viewBox="0 0 160 24" fill="none" xmlns="http://www.w3.org/2000/svg">
<path d="M8.24301 7.33992L1.86301 8.26492L1.75001 8.28792C1.57895 8.33333 1.423 8.42333 1.2981 8.54872C1.1732 8.67412 1.08381 8.83041 1.03907 9.00165C0.994331 9.17289 0.995837 9.35293 1.04344 9.5234C1.09104 9.69386 1.18303 9.84864 1.31001 9.97192L5.93201 14.4709L4.84201 20.8259L4.82901 20.9359C4.81854 21.1128 4.85528 21.2894 4.93546 21.4474C5.01564 21.6055 5.13639 21.7394 5.28535 21.8354C5.4343 21.9315 5.6061 21.9862 5.78316 21.994C5.96022 22.0018 6.13617 21.9625 6.29301 21.8799L11.999 18.8799L17.692 21.8799L17.792 21.9259C17.9571 21.9909 18.1365 22.0109 18.3118 21.9837C18.4871 21.9565 18.652 21.8832 18.7896 21.7712C18.9272 21.6592 19.0326 21.5127 19.0948 21.3466C19.1571 21.1804 19.1741 21.0008 19.144 20.8259L18.053 14.4709L22.677 9.97092L22.755 9.88592C22.8664 9.74869 22.9395 9.58438 22.9667 9.40972C22.994 9.23506 22.9744 9.0563 22.9101 8.89165C22.8458 8.72701 22.7389 8.58235 22.6005 8.47244C22.4621 8.36252 22.297 8.29126 22.122 8.26592L15.742 7.33992L12.89 1.55992C12.8075 1.39246 12.6797 1.25144 12.5212 1.15283C12.3627 1.05422 12.1797 1.00195 11.993 1.00195C11.8063 1.00195 11.6233 1.05422 11.4648 1.15283C11.3063 1.25144 11.1785 1.39246 11.096 1.55992L8.24301 7.33992Z" fill="#F2AE40"/>
<path d="M42.243 7.33992L35.863 8.26492L35.75 8.28792C35.5789 8.33333 35.423 8.42333 35.2981 8.54872C35.1732 8.67412 35.0838 8.83041 35.0391 9.00165C34.9943 9.17289 34.9958 9.35293 35.0434 9.5234C35.091 9.69386 35.183 9.84864 35.31 9.97192L39.932 14.4709L38.842 20.8259L38.829 20.9359C38.8185 21.1128 38.8553 21.2894 38.9355 21.4474C39.0156 21.6055 39.1364 21.7394 39.2853 21.8354C39.4343 21.9315 39.6061 21.9862 39.7832 21.994C39.9602 22.0018 40.1362 21.9625 40.293 21.8799L45.999 18.8799L51.692 21.8799L51.792 21.9259C51.9571 21.9909 52.1365 22.0109 52.3118 21.9837C52.4871 21.9565 52.652 21.8832 52.7896 21.7712C52.9272 21.6592 53.0326 21.5127 53.0948 21.3466C53.1571 21.1804 53.1741 21.0008 53.144 20.8259L52.053 14.4709L56.677 9.97092L56.755 9.88592C56.8664 9.74869 56.9395 9.58438 56.9667 9.40972C56.994 9.23506 56.9744 9.0563 56.9101 8.89165C56.8458 8.72701 56.7389 8.58235 56.6005 8.47244C56.4621 8.36252 56.297 8.29126 56.122 8.26592L49.742 7.33992L46.89 1.55992C46.8075 1.39246 46.6797 1.25144 46.5212 1.15283C46.3627 1.05422 46.1797 1.00195 45.993 1.00195C45.8063 1.00195 45.6233 1.05422 45.4648 1.15283C45.3063 1.25144 45.1785 1.39246 45.096 1.55992L42.243 7.33992Z" fill="#F2AE40"/>
<path d="M76.243 7.33992L69.863 8.26492L69.75 8.28792C69.5789 8.33333 69.423 8.42333 69.2981 8.54872C69.1732 8.67412 69.0838 8.83041 69.0391 9.00165C68.9943 9.17289 68.9958 9.35293 69.0434 9.5234C69.091 9.69386 69.183 9.84864 69.31 9.97192L73.932 14.4709L72.842 20.8259L72.829 20.9359C72.8185 21.1128 72.8553 21.2894 72.9355 21.4474C73.0156 21.6055 73.1364 21.7394 73.2853 21.8354C73.4343 21.9315 73.6061 21.9862 73.7832 21.994C73.9602 22.0018 74.1362 21.9625 74.293 21.8799L79.999 18.8799L85.692 21.8799L85.792 21.9259C85.9571 21.9909 86.1365 22.0109 86.3118 21.9837C86.4871 21.9565 86.652 21.8832 86.7896 21.7712C86.9272 21.6592 87.0326 21.5127 87.0948 21.3466C87.1571 21.1804 87.1741 21.0008 87.144 20.8259L86.053 14.4709L90.677 9.97092L90.755 9.88592C90.8664 9.74869 90.9395 9.58438 90.9667 9.40972C90.994 9.23506 90.9744 9.0563 90.9101 8.89165C90.8458 8.72701 90.7389 8.58235 90.6005 8.47244C90.4621 8.36252 90.297 8.29126 90.122 8.26592L83.742 7.33992L80.89 1.55992C80.8075 1.39246 80.6797 1.25144 80.5212 1.15283C80.3627 1.05422 80.1797 1.00195 79.993 1.00195C79.8063 1.00195 79.6233 1.05422 79.4648 1.15283C79.3063 1.25144 79.1785 1.39246 79.096 1.55992L76.243 7.33992Z" fill="#F2AE40"/>
<path d="M110.243 7.33992L103.863 8.26492L103.75 8.28792C103.579 8.33333 103.423 8.42333 103.298 8.54872C103.173 8.67412 103.084 8.83041 103.039 9.00165C102.994 9.17289 102.996 9.35293 103.043 9.5234C103.091 9.69386 103.183 9.84864 103.31 9.97192L107.932 14.4709L106.842 20.8259L106.829 20.9359C106.819 21.1128 106.855 21.2894 106.935 21.4474C107.016 21.6055 107.136 21.7394 107.285 21.8354C107.434 21.9315 107.606 21.9862 107.783 21.994C107.96 22.0018 108.136 21.9625 108.293 21.8799L113.999 18.8799L119.692 21.8799L119.792 21.9259C119.957 21.9909 120.136 22.0109 120.312 21.9837C120.487 21.9565 120.652 21.8832 120.79 21.7712C120.927 21.6592 121.033 21.5127 121.095 21.3466C121.157 21.1804 121.174 21.0008 121.144 20.8259L120.053 14.4709L124.677 9.97092L124.755 9.88592C124.866 9.74869 124.939 9.58438 124.967 9.40972C124.994 9.23506 124.974 9.0563 124.91 8.89165C124.846 8.72701 124.739 8.58235 124.6 8.47244C124.462 8.36252 124.297 8.29126 124.122 8.26592L117.742 7.33992L114.89 1.55992C114.807 1.39246 114.68 1.25144 114.521 1.15283C114.363 1.05422 114.18 1.00195 113.993 1.00195C113.806 1.00195 113.623 1.05422 113.465 1.15283C113.306 1.25144 113.179 1.39246 113.096 1.55992L110.243 7.33992Z" fill="#F2AE40"/>
<path d="M144.243 7.33992L137.863 8.26492L137.75 8.28792C137.579 8.33333 137.423 8.42333 137.298 8.54872C137.173 8.67412 137.084 8.83041 137.039 9.00165C136.994 9.17289 136.996 9.35293 137.043 9.5234C137.091 9.69386 137.183 9.84864 137.31 9.97192L141.932 14.4709L140.842 20.8259L140.829 20.9359C140.819 21.1128 140.855 21.2894 140.935 21.4474C141.016 21.6055 141.136 21.7394 141.285 21.8354C141.434 21.9315 141.606 21.9862 141.783 21.994C141.96 22.0018 142.136 21.9625 142.293 21.8799L147.999 18.8799L153.692 21.8799L153.792 21.9259C153.957 21.9909 154.136 22.0109 154.312 21.9837C154.487 21.9565 154.652 21.8832 154.79 21.7712C154.927 21.6592 155.033 21.5127 155.095 21.3466C155.157 21.1804 155.174 21.0008 155.144 20.8259L154.053 14.4709L158.677 9.97092L158.755 9.88592C158.866 9.74869 158.939 9.58438 158.967 9.40972C158.994 9.23506 158.974 9.0563 158.91 8.89165C158.846 8.72701 158.739 8.58235 158.6 8.47244C158.462 8.36252 158.297 8.29126 158.122 8.26592L151.742 7.33992L148.89 1.55992C148.807 1.39246 148.68 1.25144 148.521 1.15283C148.363 1.05422 148.18 1.00195 147.993 1.00195C147.806 1.00195 147.623 1.05422 147.465 1.15283C147.306 1.25144 147.179 1.39246 147.096 1.55992L144.243 7.33992Z" fill="#F2AE40"/>
</svg>
