<svg width="24" height="24" viewBox="0 0 24 24" fill="none" xmlns="http://www.w3.org/2000/svg">
<path d="M11.9995 7C11.0106 7 10.0439 7.29324 9.22166 7.84265C8.39942 8.39206 7.75855 9.17295 7.38012 10.0866C7.00168 11.0002 6.90266 12.0055 7.09559 12.9755C7.28851 13.9454 7.76472 14.8363 8.46398 15.5355C9.16324 16.2348 10.0542 16.711 11.0241 16.9039C11.994 17.0969 12.9993 16.9978 13.9129 16.6194C14.8266 16.241 15.6075 15.6001 16.1569 14.7779C16.7063 13.9556 16.9995 12.9889 16.9995 12M12.9995 3.05502C11.1456 2.84703 9.27281 3.2203 7.6403 4.12319C6.00778 5.02608 4.69618 6.41397 3.88694 8.09488C3.07769 9.77578 2.81079 11.6666 3.12316 13.5059C3.43552 15.3451 4.31172 17.0418 5.63054 18.3613C6.94936 19.6808 8.64562 20.5578 10.4847 20.8711C12.3238 21.1844 14.2147 20.9184 15.896 20.11C17.5774 19.3016 18.9659 17.9907 19.8696 16.3587C20.7733 14.7266 21.1476 12.8541 20.9405 11M14.9995 9V6L17.9995 3V6H20.9995L17.9995 9H14.9995ZM14.9995 9L11.9995 12M10.9995 12C10.9995 12.2652 11.1049 12.5196 11.2924 12.7071C11.4799 12.8946 11.7343 13 11.9995 13C12.2647 13 12.5191 12.8946 12.7066 12.7071C12.8942 12.5196 12.9995 12.2652 12.9995 12C12.9995 11.7348 12.8942 11.4804 12.7066 11.2929C12.5191 11.1054 12.2647 11 11.9995 11C11.7343 11 11.4799 11.1054 11.2924 11.2929C11.1049 11.4804 10.9995 11.7348 10.9995 12Z" stroke="white" stroke-width="2" stroke-linecap="round" stroke-linejoin="round"/>
</svg>
