<svg width="33" height="32" viewBox="0 0 33 32" fill="none" xmlns="http://www.w3.org/2000/svg">
<path d="M8.33398 28V25.3333C8.33398 23.9188 8.89589 22.5623 9.89608 21.5621C10.8963 20.5619 12.2528 20 13.6673 20H17.6673M21.6673 29.3333L28.334 22.6667M28.334 22.6667V28.6667M28.334 22.6667H22.334M11.0007 9.33333C11.0007 10.7478 11.5626 12.1044 12.5627 13.1046C13.5629 14.1048 14.9195 14.6667 16.334 14.6667C17.7485 14.6667 19.105 14.1048 20.1052 13.1046C21.1054 12.1044 21.6673 10.7478 21.6673 9.33333C21.6673 7.91885 21.1054 6.56229 20.1052 5.5621C19.105 4.5619 17.7485 4 16.334 4C14.9195 4 13.5629 4.5619 12.5627 5.5621C11.5626 6.56229 11.0007 7.91885 11.0007 9.33333Z" stroke="white" stroke-width="2.66667" stroke-linecap="round" stroke-linejoin="round"/>
</svg>
